G04 #@! TF.FileFunction,Copper,L4,Bot,Signal*
%FSLAX46Y46*%
G04 Gerber Fmt 4.6, Leading zero omitted, Abs format (unit mm)*
G04 Created by KiCad (PCBNEW 4.0.7) date 02/17/18 20:59:13*
%MOMM*%
%LPD*%
G01*
G04 APERTURE LIST*
%ADD10C,0.100000*%
%ADD11R,1.700000X1.700000*%
%ADD12O,1.700000X1.700000*%
%ADD13R,0.750000X1.200000*%
%ADD14R,1.200000X0.750000*%
%ADD15R,0.800000X0.800000*%
%ADD16R,0.600000X1.950000*%
%ADD17R,0.500000X0.900000*%
%ADD18R,0.900000X0.500000*%
%ADD19R,1.550000X1.300000*%
%ADD20R,0.600000X1.550000*%
%ADD21R,1.600000X0.550000*%
%ADD22R,0.550000X1.600000*%
%ADD23R,1.750000X0.550000*%
%ADD24R,1.800000X1.200000*%
%ADD25C,6.400000*%
%ADD26C,5.400000*%
%ADD27C,0.700000*%
%ADD28C,0.250000*%
G04 APERTURE END LIST*
D10*
D11*
X110670000Y-62080000D03*
D12*
X113210000Y-62080000D03*
X110670000Y-64620000D03*
X113210000Y-64620000D03*
X110670000Y-67160000D03*
X113210000Y-67160000D03*
X110670000Y-69700000D03*
X113210000Y-69700000D03*
X110670000Y-72240000D03*
X113210000Y-72240000D03*
X110670000Y-74780000D03*
X113210000Y-74780000D03*
X110670000Y-77320000D03*
X113210000Y-77320000D03*
X110670000Y-79860000D03*
X113210000Y-79860000D03*
X110670000Y-82400000D03*
X113210000Y-82400000D03*
X110670000Y-84940000D03*
X113210000Y-84940000D03*
X110670000Y-87480000D03*
X113210000Y-87480000D03*
X110670000Y-90020000D03*
X113210000Y-90020000D03*
X110670000Y-92560000D03*
X113210000Y-92560000D03*
X110670000Y-95100000D03*
X113210000Y-95100000D03*
X110670000Y-97640000D03*
X113210000Y-97640000D03*
X110670000Y-100180000D03*
X113210000Y-100180000D03*
X110670000Y-102720000D03*
X113210000Y-102720000D03*
X110670000Y-105260000D03*
X113210000Y-105260000D03*
X110670000Y-107800000D03*
X113210000Y-107800000D03*
X110670000Y-110340000D03*
X113210000Y-110340000D03*
X110670000Y-112880000D03*
X113210000Y-112880000D03*
X110670000Y-115420000D03*
X113210000Y-115420000D03*
X110670000Y-117960000D03*
X113210000Y-117960000D03*
X110670000Y-120500000D03*
X113210000Y-120500000D03*
X110670000Y-123040000D03*
X113210000Y-123040000D03*
X110670000Y-125580000D03*
X113210000Y-125580000D03*
D11*
X105590000Y-62080000D03*
D12*
X108130000Y-62080000D03*
X105590000Y-64620000D03*
X108130000Y-64620000D03*
X105590000Y-67160000D03*
X108130000Y-67160000D03*
X105590000Y-69700000D03*
X108130000Y-69700000D03*
X105590000Y-72240000D03*
X108130000Y-72240000D03*
X105590000Y-74780000D03*
X108130000Y-74780000D03*
X105590000Y-77320000D03*
X108130000Y-77320000D03*
X105590000Y-79860000D03*
X108130000Y-79860000D03*
X105590000Y-82400000D03*
X108130000Y-82400000D03*
X105590000Y-84940000D03*
X108130000Y-84940000D03*
X105590000Y-87480000D03*
X108130000Y-87480000D03*
X105590000Y-90020000D03*
X108130000Y-90020000D03*
X105590000Y-92560000D03*
X108130000Y-92560000D03*
X105590000Y-95100000D03*
X108130000Y-95100000D03*
X105590000Y-97640000D03*
X108130000Y-97640000D03*
X105590000Y-100180000D03*
X108130000Y-100180000D03*
X105590000Y-102720000D03*
X108130000Y-102720000D03*
X105590000Y-105260000D03*
X108130000Y-105260000D03*
X105590000Y-107800000D03*
X108130000Y-107800000D03*
X105590000Y-110340000D03*
X108130000Y-110340000D03*
X105590000Y-112880000D03*
X108130000Y-112880000D03*
X105590000Y-115420000D03*
X108130000Y-115420000D03*
X105590000Y-117960000D03*
X108130000Y-117960000D03*
X105590000Y-120500000D03*
X108130000Y-120500000D03*
X105590000Y-123040000D03*
X108130000Y-123040000D03*
X105590000Y-125580000D03*
X108130000Y-125580000D03*
D13*
X138000000Y-110450000D03*
X138000000Y-108550000D03*
X157750000Y-102775000D03*
X157750000Y-104675000D03*
X138000000Y-105450000D03*
X138000000Y-103550000D03*
D14*
X167550000Y-99000000D03*
X169450000Y-99000000D03*
D13*
X149500000Y-66550000D03*
X149500000Y-68450000D03*
X132500000Y-66550000D03*
X132500000Y-68450000D03*
X132500000Y-76550000D03*
X132500000Y-78450000D03*
X154625000Y-115075000D03*
X154625000Y-116975000D03*
X141625000Y-116975000D03*
X141625000Y-115075000D03*
D14*
X162800000Y-74250000D03*
X164700000Y-74250000D03*
D15*
X176800000Y-60000000D03*
X175200000Y-60000000D03*
D16*
X160535000Y-78050000D03*
X161805000Y-78050000D03*
X163075000Y-78050000D03*
X164345000Y-78050000D03*
X165615000Y-78050000D03*
X166885000Y-78050000D03*
X168155000Y-78050000D03*
X169425000Y-78050000D03*
X170695000Y-78050000D03*
X171965000Y-78050000D03*
X171965000Y-87450000D03*
X170695000Y-87450000D03*
X169425000Y-87450000D03*
X168155000Y-87450000D03*
X166885000Y-87450000D03*
X165615000Y-87450000D03*
X164345000Y-87450000D03*
X163075000Y-87450000D03*
X161805000Y-87450000D03*
X160535000Y-87450000D03*
D17*
X165250000Y-113000000D03*
X163750000Y-113000000D03*
X169250000Y-113000000D03*
X170750000Y-113000000D03*
D18*
X184250000Y-136800000D03*
X184250000Y-135300000D03*
D17*
X123250000Y-101000000D03*
X124750000Y-101000000D03*
X123250000Y-107000000D03*
X124750000Y-107000000D03*
X182250000Y-60000000D03*
X180750000Y-60000000D03*
D19*
X172325000Y-136345554D03*
X180275000Y-136345554D03*
X172325000Y-131845554D03*
X180275000Y-131845554D03*
D20*
X166595000Y-103300000D03*
X167865000Y-103300000D03*
X169135000Y-103300000D03*
X170405000Y-103300000D03*
X170405000Y-108700000D03*
X169135000Y-108700000D03*
X167865000Y-108700000D03*
X166595000Y-108700000D03*
D21*
X151250000Y-103700000D03*
X151250000Y-104500000D03*
X151250000Y-105300000D03*
X151250000Y-106100000D03*
X151250000Y-106900000D03*
X151250000Y-107700000D03*
X151250000Y-108500000D03*
X151250000Y-109300000D03*
D22*
X149800000Y-110750000D03*
X149000000Y-110750000D03*
X148200000Y-110750000D03*
X147400000Y-110750000D03*
X146600000Y-110750000D03*
X145800000Y-110750000D03*
X145000000Y-110750000D03*
X144200000Y-110750000D03*
D21*
X142750000Y-109300000D03*
X142750000Y-108500000D03*
X142750000Y-107700000D03*
X142750000Y-106900000D03*
X142750000Y-106100000D03*
X142750000Y-105300000D03*
X142750000Y-104500000D03*
X142750000Y-103700000D03*
D22*
X144200000Y-102250000D03*
X145000000Y-102250000D03*
X145800000Y-102250000D03*
X146600000Y-102250000D03*
X147400000Y-102250000D03*
X148200000Y-102250000D03*
X149000000Y-102250000D03*
X149800000Y-102250000D03*
D23*
X138300000Y-68905000D03*
X138300000Y-67635000D03*
X138300000Y-66365000D03*
X138300000Y-65095000D03*
X145700000Y-65095000D03*
X145700000Y-66365000D03*
X145700000Y-67635000D03*
X145700000Y-68905000D03*
X121300000Y-68905000D03*
X121300000Y-67635000D03*
X121300000Y-66365000D03*
X121300000Y-65095000D03*
X128700000Y-65095000D03*
X128700000Y-66365000D03*
X128700000Y-67635000D03*
X128700000Y-68905000D03*
X121300000Y-78905000D03*
X121300000Y-77635000D03*
X121300000Y-76365000D03*
X121300000Y-75095000D03*
X128700000Y-75095000D03*
X128700000Y-76365000D03*
X128700000Y-77635000D03*
X128700000Y-78905000D03*
D24*
X150125000Y-117225000D03*
X146125000Y-117225000D03*
X146125000Y-114825000D03*
X150125000Y-114825000D03*
D11*
X142920000Y-53820000D03*
D12*
X142920000Y-56360000D03*
X145460000Y-53820000D03*
X145460000Y-56360000D03*
X148000000Y-53820000D03*
X148000000Y-56360000D03*
X150540000Y-53820000D03*
X150540000Y-56360000D03*
X153080000Y-53820000D03*
X153080000Y-56360000D03*
D11*
X186060000Y-126000000D03*
D12*
X188600000Y-126000000D03*
X186060000Y-123460000D03*
X188600000Y-123460000D03*
X186060000Y-120920000D03*
X188600000Y-120920000D03*
D11*
X186100000Y-113940000D03*
D12*
X188640000Y-113940000D03*
X186100000Y-111400000D03*
X188640000Y-111400000D03*
X186100000Y-108860000D03*
X188640000Y-108860000D03*
D25*
X105190000Y-131110000D03*
D26*
X105190000Y-57450000D03*
D25*
X190920000Y-54910000D03*
X190920000Y-134920000D03*
D27*
X118130000Y-64250000D03*
X152275000Y-114825000D03*
X148975000Y-107200000D03*
X159075000Y-100475000D03*
X133425000Y-64675000D03*
X136000000Y-64400000D03*
X135900000Y-105500000D03*
X131300000Y-109300000D03*
X161000000Y-76000000D03*
X144300000Y-119300000D03*
X165300000Y-101600000D03*
X162100000Y-113000000D03*
X141600000Y-119400000D03*
X154600000Y-113500000D03*
X138000000Y-112300000D03*
X165300000Y-99000000D03*
X174500000Y-78100000D03*
X174400000Y-87500000D03*
X161000000Y-74200000D03*
X173500000Y-60000000D03*
X149500000Y-64500000D03*
X134400000Y-76400000D03*
X119300000Y-74900000D03*
X176050000Y-131650000D03*
X186160000Y-136800000D03*
X160975000Y-101850000D03*
X118800000Y-76800000D03*
X135500000Y-66600000D03*
X118600000Y-66700000D03*
X132500000Y-70000000D03*
X138100000Y-101700000D03*
X135400000Y-108600000D03*
X171300000Y-99000000D03*
X167000000Y-74200000D03*
X183900000Y-60000000D03*
X149500000Y-70200000D03*
X132500000Y-80000000D03*
X158750000Y-80150000D03*
X146420000Y-89310000D03*
X153650000Y-86025000D03*
X154900000Y-110750000D03*
X150720000Y-87860000D03*
X147450000Y-91125000D03*
X157700000Y-83000000D03*
X157700000Y-86150000D03*
X130700000Y-76400000D03*
X142000000Y-78200000D03*
X151400000Y-98725000D03*
X152800000Y-109700000D03*
X135100000Y-69000000D03*
X125300000Y-67600000D03*
X141925000Y-99575000D03*
X181750000Y-102425000D03*
X145625000Y-105975000D03*
X154650000Y-104500000D03*
X126100000Y-107000000D03*
X149300000Y-104550000D03*
X128225000Y-100300000D03*
X144425000Y-104500000D03*
X146700000Y-112700000D03*
X183200000Y-108775000D03*
X155500000Y-102600000D03*
X175525000Y-98275000D03*
X152150000Y-111850000D03*
X144950000Y-108750000D03*
X123400000Y-79150000D03*
X139500000Y-90150000D03*
X140800000Y-89000000D03*
X123350000Y-68950000D03*
X138550000Y-71300000D03*
X142975000Y-87200000D03*
D28*
X141625000Y-116975000D02*
X134215000Y-116975000D01*
X120080000Y-131110000D02*
X105190000Y-131110000D01*
X134215000Y-116975000D02*
X120080000Y-131110000D01*
X121300000Y-65095000D02*
X121300000Y-57470000D01*
X121280000Y-57450000D02*
X105190000Y-57450000D01*
X121300000Y-57470000D02*
X121280000Y-57450000D01*
X188640000Y-108860000D02*
X188640000Y-106140000D01*
X190920000Y-103860000D02*
X190920000Y-54910000D01*
X188640000Y-106140000D02*
X190920000Y-103860000D01*
X172325000Y-131845554D02*
X172325000Y-133795000D01*
X187240000Y-138600000D02*
X190920000Y-134920000D01*
X170560000Y-138600000D02*
X187240000Y-138600000D01*
X169530000Y-137570000D02*
X170560000Y-138600000D01*
X169530000Y-136590000D02*
X169530000Y-137570000D01*
X172325000Y-133795000D02*
X169530000Y-136590000D01*
X121300000Y-65095000D02*
X118975000Y-65095000D01*
X118975000Y-65095000D02*
X118130000Y-64250000D01*
X172325000Y-131845554D02*
X172325000Y-132375000D01*
X150125000Y-114825000D02*
X152275000Y-114825000D01*
X151250000Y-106900000D02*
X149275000Y-106900000D01*
X149275000Y-106900000D02*
X148975000Y-107200000D01*
X157750000Y-102775000D02*
X157750000Y-101800000D01*
X157750000Y-101800000D02*
X159075000Y-100475000D01*
X132500000Y-66550000D02*
X132500000Y-65600000D01*
X132500000Y-65600000D02*
X133425000Y-64675000D01*
X138300000Y-65095000D02*
X136695000Y-65095000D01*
X136695000Y-65095000D02*
X136000000Y-64400000D01*
X172325000Y-131845554D02*
X172164446Y-131845554D01*
X138000000Y-105450000D02*
X135950000Y-105450000D01*
X135950000Y-105450000D02*
X135900000Y-105500000D01*
X142750000Y-106900000D02*
X133700000Y-106900000D01*
X133700000Y-106900000D02*
X131300000Y-109300000D01*
X161805000Y-78050000D02*
X161805000Y-76805000D01*
X161805000Y-76805000D02*
X161000000Y-76000000D01*
X146125000Y-117225000D02*
X146125000Y-117475000D01*
X146125000Y-117475000D02*
X144300000Y-119300000D01*
X150125000Y-114825000D02*
X150975000Y-114825000D01*
X167865000Y-103300000D02*
X167865000Y-101965000D01*
X167500000Y-101600000D02*
X165300000Y-101600000D01*
X167865000Y-101965000D02*
X167500000Y-101600000D01*
X163750000Y-113000000D02*
X162100000Y-113000000D01*
X154375000Y-114825000D02*
X154625000Y-115075000D01*
X141875000Y-117225000D02*
X141625000Y-116975000D01*
X141625000Y-116975000D02*
X141625000Y-119375000D01*
X141625000Y-119375000D02*
X141600000Y-119400000D01*
X154625000Y-115075000D02*
X154625000Y-113525000D01*
X154625000Y-113525000D02*
X154600000Y-113500000D01*
X138000000Y-110450000D02*
X138000000Y-112300000D01*
X167550000Y-99000000D02*
X165300000Y-99000000D01*
X171965000Y-78050000D02*
X174450000Y-78050000D01*
X174450000Y-78050000D02*
X174500000Y-78100000D01*
X171965000Y-87450000D02*
X174350000Y-87450000D01*
X174350000Y-87450000D02*
X174400000Y-87500000D01*
X162800000Y-74250000D02*
X161050000Y-74250000D01*
X161050000Y-74250000D02*
X161000000Y-74200000D01*
X175200000Y-60000000D02*
X173500000Y-60000000D01*
X149500000Y-66550000D02*
X149500000Y-64500000D01*
X132500000Y-76550000D02*
X134250000Y-76550000D01*
X134250000Y-76550000D02*
X134400000Y-76400000D01*
X121300000Y-75095000D02*
X119495000Y-75095000D01*
X119495000Y-75095000D02*
X119300000Y-74900000D01*
X180275000Y-131845554D02*
X176245554Y-131845554D01*
X175854446Y-131845554D02*
X176050000Y-131650000D01*
X175854446Y-131845554D02*
X172325000Y-131845554D01*
X176245554Y-131845554D02*
X176050000Y-131650000D01*
X150375000Y-115075000D02*
X150125000Y-114825000D01*
X170695000Y-78050000D02*
X171965000Y-78050000D01*
X169425000Y-78050000D02*
X170695000Y-78050000D01*
X168155000Y-78050000D02*
X169425000Y-78050000D01*
X170695000Y-87450000D02*
X171965000Y-87450000D01*
X169425000Y-87450000D02*
X170695000Y-87450000D01*
X168155000Y-87450000D02*
X169425000Y-87450000D01*
X166885000Y-87450000D02*
X168155000Y-87450000D01*
X165615000Y-87450000D02*
X166885000Y-87450000D01*
X171965000Y-87450000D02*
X172015000Y-87400000D01*
X167865000Y-99315000D02*
X167550000Y-99000000D01*
X184250000Y-136800000D02*
X186160000Y-136800000D01*
X151250000Y-106100000D02*
X153625000Y-106100000D01*
X156750000Y-105675000D02*
X157750000Y-104675000D01*
X154050000Y-105675000D02*
X156750000Y-105675000D01*
X153625000Y-106100000D02*
X154050000Y-105675000D01*
X157750000Y-104675000D02*
X158150000Y-104675000D01*
X158150000Y-104675000D02*
X160975000Y-101850000D01*
X121300000Y-76365000D02*
X119235000Y-76365000D01*
X119235000Y-76365000D02*
X118800000Y-76800000D01*
X138300000Y-66365000D02*
X135735000Y-66365000D01*
X135735000Y-66365000D02*
X135500000Y-66600000D01*
X121300000Y-66365000D02*
X118935000Y-66365000D01*
X118935000Y-66365000D02*
X118600000Y-66700000D01*
X132500000Y-68450000D02*
X132500000Y-70000000D01*
X138000000Y-103550000D02*
X138000000Y-101800000D01*
X138000000Y-101800000D02*
X138100000Y-101700000D01*
X138000000Y-108550000D02*
X135450000Y-108550000D01*
X135450000Y-108550000D02*
X135400000Y-108600000D01*
X169450000Y-99000000D02*
X171300000Y-99000000D01*
X164700000Y-74250000D02*
X166950000Y-74250000D01*
X166950000Y-74250000D02*
X167000000Y-74200000D01*
X182250000Y-60000000D02*
X183900000Y-60000000D01*
X149500000Y-68450000D02*
X149500000Y-70200000D01*
X132500000Y-78450000D02*
X132500000Y-80000000D01*
X128700000Y-68905000D02*
X128700000Y-67635000D01*
X145700000Y-68905000D02*
X149045000Y-68905000D01*
X149045000Y-68905000D02*
X149500000Y-68450000D01*
X145700000Y-67635000D02*
X145700000Y-68905000D01*
X128700000Y-67635000D02*
X131685000Y-67635000D01*
X131685000Y-67635000D02*
X132500000Y-68450000D01*
X142750000Y-107700000D02*
X138850000Y-107700000D01*
X138850000Y-107700000D02*
X138000000Y-108550000D01*
X138000000Y-103550000D02*
X138450000Y-103550000D01*
X141000000Y-106100000D02*
X142750000Y-106100000D01*
X138450000Y-103550000D02*
X141000000Y-106100000D01*
X128700000Y-78905000D02*
X132045000Y-78905000D01*
X132045000Y-78905000D02*
X132500000Y-78450000D01*
X128700000Y-77635000D02*
X128700000Y-78905000D01*
X169135000Y-103300000D02*
X169135000Y-99315000D01*
X169135000Y-99315000D02*
X169450000Y-99000000D01*
X164345000Y-78050000D02*
X164345000Y-74605000D01*
X164345000Y-74605000D02*
X164700000Y-74250000D01*
X150125000Y-117225000D02*
X150125000Y-117075000D01*
X150125000Y-117075000D02*
X148700000Y-115650000D01*
X149000000Y-112000000D02*
X149000000Y-110750000D01*
X148700000Y-112300000D02*
X149000000Y-112000000D01*
X148700000Y-115650000D02*
X148700000Y-112300000D01*
X150125000Y-117225000D02*
X154375000Y-117225000D01*
X154375000Y-117225000D02*
X154625000Y-116975000D01*
X146125000Y-114825000D02*
X146325000Y-114825000D01*
X146325000Y-114825000D02*
X148200000Y-112950000D01*
X148200000Y-112950000D02*
X148200000Y-110750000D01*
X146125000Y-114825000D02*
X141875000Y-114825000D01*
X141875000Y-114825000D02*
X141625000Y-115075000D01*
X176800000Y-60000000D02*
X180750000Y-60000000D01*
X145800000Y-90925000D02*
X145800000Y-89930000D01*
X145800000Y-100550000D02*
X145800000Y-90925000D01*
X145800000Y-102250000D02*
X145800000Y-100550000D01*
X158750000Y-80150000D02*
X160535000Y-78365000D01*
X145800000Y-89930000D02*
X146420000Y-89310000D01*
X160535000Y-78050000D02*
X160535000Y-78365000D01*
X153650000Y-86025000D02*
X153650000Y-84600000D01*
X149800000Y-110750000D02*
X154900000Y-110750000D01*
X153650000Y-84600000D02*
X153700000Y-84600000D01*
X140800000Y-79050000D02*
X143300000Y-81550000D01*
X140400000Y-78650000D02*
X140800000Y-79050000D01*
X148800000Y-81550000D02*
X151850000Y-84600000D01*
X143300000Y-81550000D02*
X148800000Y-81550000D01*
X128700000Y-65095000D02*
X126505000Y-65095000D01*
X126500000Y-68900000D02*
X132695000Y-75095000D01*
X126500000Y-65100000D02*
X126500000Y-68900000D01*
X126505000Y-65095000D02*
X126500000Y-65100000D01*
X164345000Y-85445000D02*
X164345000Y-87450000D01*
X151850000Y-84600000D02*
X153700000Y-84600000D01*
X153700000Y-84600000D02*
X163500000Y-84600000D01*
X163500000Y-84600000D02*
X164345000Y-85445000D01*
X128700000Y-75095000D02*
X132695000Y-75095000D01*
X132695000Y-75095000D02*
X136845000Y-75095000D01*
X136845000Y-75095000D02*
X140400000Y-78650000D01*
X145700000Y-65095000D02*
X141705000Y-65095000D01*
X140400000Y-66400000D02*
X140400000Y-78650000D01*
X141705000Y-65095000D02*
X140400000Y-66400000D01*
X151150000Y-87450000D02*
X151550000Y-87450000D01*
X146600000Y-100850000D02*
X146600000Y-91975000D01*
X158150000Y-87450000D02*
X153950000Y-87450000D01*
X146600000Y-100850000D02*
X146600000Y-102250000D01*
X153950000Y-87450000D02*
X151550000Y-87450000D01*
X146600000Y-91975000D02*
X147450000Y-91125000D01*
X151130000Y-87450000D02*
X150720000Y-87860000D01*
X151150000Y-87450000D02*
X151130000Y-87450000D01*
X158150000Y-87450000D02*
X158150000Y-86600000D01*
X157700000Y-83000000D02*
X157700000Y-78200000D01*
X158150000Y-86600000D02*
X157700000Y-86150000D01*
X158150000Y-87450000D02*
X158450000Y-87450000D01*
X160535000Y-87450000D02*
X160535000Y-86165000D01*
X163075000Y-86225000D02*
X163075000Y-87450000D01*
X162700000Y-85850000D02*
X163075000Y-86225000D01*
X160850000Y-85850000D02*
X162700000Y-85850000D01*
X160535000Y-86165000D02*
X160850000Y-85850000D01*
X128700000Y-76365000D02*
X130665000Y-76365000D01*
X130665000Y-76365000D02*
X130700000Y-76400000D01*
X142000000Y-78200000D02*
X157700000Y-78200000D01*
X145700000Y-66365000D02*
X147035000Y-66365000D01*
X148200000Y-65200000D02*
X148200000Y-63000000D01*
X147035000Y-66365000D02*
X148200000Y-65200000D01*
X128700000Y-66365000D02*
X129935000Y-66365000D01*
X158450000Y-87450000D02*
X160535000Y-87450000D01*
X157700000Y-69800000D02*
X157700000Y-78200000D01*
X148200000Y-63000000D02*
X150900000Y-63000000D01*
X150900000Y-63000000D02*
X157700000Y-69800000D01*
X133300000Y-63000000D02*
X148200000Y-63000000D01*
X129935000Y-66365000D02*
X133300000Y-63000000D01*
X151400000Y-98725000D02*
X151400000Y-91200000D01*
X152800000Y-109700000D02*
X152400000Y-109300000D01*
X151250000Y-109300000D02*
X152400000Y-109300000D01*
X151400000Y-91200000D02*
X150000000Y-89800000D01*
X135100000Y-69000000D02*
X136400000Y-67700000D01*
X125300000Y-67600000D02*
X125100000Y-67800000D01*
X125100000Y-68800000D02*
X125100000Y-67800000D01*
X136400000Y-67700000D02*
X138235000Y-67700000D01*
X138235000Y-67700000D02*
X138300000Y-67635000D01*
X129700000Y-83900000D02*
X144100000Y-83900000D01*
X125100000Y-79300000D02*
X129700000Y-83900000D01*
X144100000Y-83900000D02*
X150000000Y-89800000D01*
X161500000Y-89800000D02*
X150000000Y-89800000D01*
X161805000Y-89495000D02*
X161805000Y-87450000D01*
X161500000Y-89800000D02*
X161805000Y-89495000D01*
X121300000Y-77635000D02*
X123435000Y-77635000D01*
X123435000Y-77635000D02*
X125100000Y-79300000D01*
X121300000Y-67635000D02*
X123935000Y-67635000D01*
X123935000Y-67635000D02*
X125100000Y-68800000D01*
X125100000Y-68800000D02*
X125100000Y-79300000D01*
X123250000Y-101000000D02*
X122780000Y-101470000D01*
X110670000Y-102720000D02*
X110830000Y-102720000D01*
X110830000Y-102720000D02*
X112080000Y-101470000D01*
X112080000Y-101470000D02*
X122780000Y-101470000D01*
X110670000Y-105260000D02*
X110720000Y-105260000D01*
X110720000Y-105260000D02*
X112010000Y-106550000D01*
X112010000Y-106550000D02*
X122800000Y-106550000D01*
X122800000Y-106550000D02*
X123250000Y-107000000D01*
X144200000Y-102250000D02*
X144200000Y-101850000D01*
X144200000Y-101850000D02*
X141925000Y-99575000D01*
X167865000Y-106575000D02*
X177600000Y-106575000D01*
X177600000Y-106575000D02*
X181750000Y-102425000D01*
X167865000Y-108700000D02*
X167865000Y-106575000D01*
X167865000Y-108700000D02*
X167865000Y-111615000D01*
X167865000Y-111615000D02*
X169250000Y-113000000D01*
X169135000Y-108700000D02*
X169135000Y-107740000D01*
X178875000Y-107100000D02*
X185825000Y-100150000D01*
X185825000Y-100150000D02*
X185825000Y-53275000D01*
X185825000Y-53275000D02*
X184500000Y-51950000D01*
X184500000Y-51950000D02*
X152410000Y-51950000D01*
X152410000Y-51950000D02*
X150540000Y-53820000D01*
X178625000Y-107350000D02*
X178875000Y-107100000D01*
X169525000Y-107350000D02*
X178625000Y-107350000D01*
X169135000Y-107740000D02*
X169525000Y-107350000D01*
X169135000Y-108700000D02*
X169135000Y-111385000D01*
X169135000Y-111385000D02*
X170750000Y-113000000D01*
X142750000Y-108500000D02*
X143850000Y-108500000D01*
X144200000Y-108150000D02*
X143850000Y-108500000D01*
X144200000Y-107400000D02*
X144200000Y-108150000D01*
X145400000Y-106200000D02*
X144200000Y-107400000D01*
X145400000Y-106200000D02*
X145625000Y-105975000D01*
X151250000Y-104500000D02*
X154650000Y-104500000D01*
X151250000Y-104500000D02*
X149350000Y-104500000D01*
X126100000Y-107000000D02*
X124750000Y-107000000D01*
X149350000Y-104500000D02*
X149300000Y-104550000D01*
X144425000Y-104500000D02*
X146650000Y-104500000D01*
X147400000Y-110750000D02*
X147400000Y-106900000D01*
X125450000Y-100300000D02*
X124750000Y-101000000D01*
X125450000Y-100300000D02*
X128225000Y-100300000D01*
X147400000Y-105250000D02*
X147400000Y-106900000D01*
X146650000Y-104500000D02*
X147400000Y-105250000D01*
X147400000Y-110750000D02*
X147400000Y-112000000D01*
X147400000Y-112000000D02*
X146700000Y-112700000D01*
X184275000Y-110250000D02*
X184275000Y-109850000D01*
X186100000Y-113940000D02*
X184275000Y-112115000D01*
X184275000Y-110250000D02*
X184275000Y-112115000D01*
X184275000Y-109850000D02*
X183200000Y-108775000D01*
X151250000Y-103700000D02*
X153125000Y-103700000D01*
X155025000Y-103075000D02*
X155500000Y-102600000D01*
X153750000Y-103075000D02*
X155025000Y-103075000D01*
X153125000Y-103700000D02*
X153750000Y-103075000D01*
X186100000Y-108860000D02*
X186100000Y-108880000D01*
X186100000Y-108880000D02*
X187350000Y-110130000D01*
X187350000Y-110130000D02*
X193350000Y-110130000D01*
X174790000Y-97550000D02*
X174800000Y-97550000D01*
X149000000Y-100950000D02*
X149200000Y-100750000D01*
X149200000Y-100750000D02*
X150650000Y-100750000D01*
X150650000Y-100750000D02*
X152000000Y-102100000D01*
X152000000Y-102100000D02*
X154150000Y-102100000D01*
X154150000Y-102100000D02*
X158700000Y-97550000D01*
X158700000Y-97550000D02*
X174790000Y-97550000D01*
X149000000Y-102250000D02*
X149000000Y-100950000D01*
X174800000Y-97550000D02*
X175525000Y-98275000D01*
X182770554Y-133850000D02*
X180275000Y-136345554D01*
X185950000Y-133850000D02*
X182770554Y-133850000D01*
X193350000Y-126450000D02*
X185950000Y-133850000D01*
X193350000Y-110130000D02*
X193350000Y-126450000D01*
X180275000Y-136345554D02*
X183204446Y-136345554D01*
X183204446Y-136345554D02*
X184250000Y-135300000D01*
X172325000Y-136345554D02*
X180275000Y-136345554D01*
X171729446Y-135750000D02*
X172325000Y-136345554D01*
X144200000Y-110750000D02*
X144200000Y-109500000D01*
X163395000Y-111900000D02*
X166595000Y-108700000D01*
X152200000Y-111900000D02*
X163395000Y-111900000D01*
X152150000Y-111850000D02*
X152200000Y-111900000D01*
X144200000Y-109500000D02*
X144950000Y-108750000D01*
X166595000Y-108700000D02*
X166595000Y-111655000D01*
X166595000Y-111655000D02*
X165250000Y-113000000D01*
X166595000Y-103300000D02*
X162000000Y-103300000D01*
X157600000Y-107700000D02*
X151250000Y-107700000D01*
X162000000Y-103300000D02*
X157600000Y-107700000D01*
X151250000Y-108500000D02*
X157650000Y-108500000D01*
X170405000Y-104245000D02*
X170405000Y-103300000D01*
X169950000Y-104700000D02*
X170405000Y-104245000D01*
X161450000Y-104700000D02*
X169950000Y-104700000D01*
X157650000Y-108500000D02*
X161450000Y-104700000D01*
X142750000Y-104500000D02*
X142000000Y-104500000D01*
X142000000Y-104500000D02*
X139500000Y-102000000D01*
X121300000Y-78905000D02*
X123155000Y-78905000D01*
X123155000Y-78905000D02*
X123400000Y-79150000D01*
X139500000Y-102000000D02*
X139500000Y-90150000D01*
X140800000Y-101600000D02*
X140800000Y-89000000D01*
X142750000Y-103550000D02*
X140800000Y-101600000D01*
X142750000Y-103700000D02*
X142750000Y-103550000D01*
X123305000Y-68905000D02*
X121300000Y-68905000D01*
X123350000Y-68950000D02*
X123305000Y-68905000D01*
X144000000Y-100100000D02*
X142975000Y-99075000D01*
X145000000Y-101100000D02*
X144000000Y-100100000D01*
X138550000Y-71300000D02*
X138250000Y-71000000D01*
X138250000Y-68955000D02*
X138250000Y-71000000D01*
X145000000Y-101100000D02*
X145000000Y-102250000D01*
X142975000Y-99075000D02*
X142975000Y-87200000D01*
X138250000Y-68955000D02*
X138300000Y-68905000D01*
M02*
