G04 #@! TF.FileFunction,Copper,L3,Inr,Plane*
%FSLAX46Y46*%
G04 Gerber Fmt 4.6, Leading zero omitted, Abs format (unit mm)*
G04 Created by KiCad (PCBNEW 4.0.7) date 02/17/18 20:59:13*
%MOMM*%
%LPD*%
G01*
G04 APERTURE LIST*
%ADD10C,0.100000*%
%ADD11R,1.700000X1.700000*%
%ADD12O,1.700000X1.700000*%
%ADD13C,6.400000*%
%ADD14C,5.400000*%
%ADD15C,0.700000*%
%ADD16C,0.254000*%
G04 APERTURE END LIST*
D10*
D11*
X110670000Y-62080000D03*
D12*
X113210000Y-62080000D03*
X110670000Y-64620000D03*
X113210000Y-64620000D03*
X110670000Y-67160000D03*
X113210000Y-67160000D03*
X110670000Y-69700000D03*
X113210000Y-69700000D03*
X110670000Y-72240000D03*
X113210000Y-72240000D03*
X110670000Y-74780000D03*
X113210000Y-74780000D03*
X110670000Y-77320000D03*
X113210000Y-77320000D03*
X110670000Y-79860000D03*
X113210000Y-79860000D03*
X110670000Y-82400000D03*
X113210000Y-82400000D03*
X110670000Y-84940000D03*
X113210000Y-84940000D03*
X110670000Y-87480000D03*
X113210000Y-87480000D03*
X110670000Y-90020000D03*
X113210000Y-90020000D03*
X110670000Y-92560000D03*
X113210000Y-92560000D03*
X110670000Y-95100000D03*
X113210000Y-95100000D03*
X110670000Y-97640000D03*
X113210000Y-97640000D03*
X110670000Y-100180000D03*
X113210000Y-100180000D03*
X110670000Y-102720000D03*
X113210000Y-102720000D03*
X110670000Y-105260000D03*
X113210000Y-105260000D03*
X110670000Y-107800000D03*
X113210000Y-107800000D03*
X110670000Y-110340000D03*
X113210000Y-110340000D03*
X110670000Y-112880000D03*
X113210000Y-112880000D03*
X110670000Y-115420000D03*
X113210000Y-115420000D03*
X110670000Y-117960000D03*
X113210000Y-117960000D03*
X110670000Y-120500000D03*
X113210000Y-120500000D03*
X110670000Y-123040000D03*
X113210000Y-123040000D03*
X110670000Y-125580000D03*
X113210000Y-125580000D03*
D11*
X105590000Y-62080000D03*
D12*
X108130000Y-62080000D03*
X105590000Y-64620000D03*
X108130000Y-64620000D03*
X105590000Y-67160000D03*
X108130000Y-67160000D03*
X105590000Y-69700000D03*
X108130000Y-69700000D03*
X105590000Y-72240000D03*
X108130000Y-72240000D03*
X105590000Y-74780000D03*
X108130000Y-74780000D03*
X105590000Y-77320000D03*
X108130000Y-77320000D03*
X105590000Y-79860000D03*
X108130000Y-79860000D03*
X105590000Y-82400000D03*
X108130000Y-82400000D03*
X105590000Y-84940000D03*
X108130000Y-84940000D03*
X105590000Y-87480000D03*
X108130000Y-87480000D03*
X105590000Y-90020000D03*
X108130000Y-90020000D03*
X105590000Y-92560000D03*
X108130000Y-92560000D03*
X105590000Y-95100000D03*
X108130000Y-95100000D03*
X105590000Y-97640000D03*
X108130000Y-97640000D03*
X105590000Y-100180000D03*
X108130000Y-100180000D03*
X105590000Y-102720000D03*
X108130000Y-102720000D03*
X105590000Y-105260000D03*
X108130000Y-105260000D03*
X105590000Y-107800000D03*
X108130000Y-107800000D03*
X105590000Y-110340000D03*
X108130000Y-110340000D03*
X105590000Y-112880000D03*
X108130000Y-112880000D03*
X105590000Y-115420000D03*
X108130000Y-115420000D03*
X105590000Y-117960000D03*
X108130000Y-117960000D03*
X105590000Y-120500000D03*
X108130000Y-120500000D03*
X105590000Y-123040000D03*
X108130000Y-123040000D03*
X105590000Y-125580000D03*
X108130000Y-125580000D03*
D11*
X142920000Y-53820000D03*
D12*
X142920000Y-56360000D03*
X145460000Y-53820000D03*
X145460000Y-56360000D03*
X148000000Y-53820000D03*
X148000000Y-56360000D03*
X150540000Y-53820000D03*
X150540000Y-56360000D03*
X153080000Y-53820000D03*
X153080000Y-56360000D03*
D11*
X186060000Y-126000000D03*
D12*
X188600000Y-126000000D03*
X186060000Y-123460000D03*
X188600000Y-123460000D03*
X186060000Y-120920000D03*
X188600000Y-120920000D03*
D11*
X186100000Y-113940000D03*
D12*
X188640000Y-113940000D03*
X186100000Y-111400000D03*
X188640000Y-111400000D03*
X186100000Y-108860000D03*
X188640000Y-108860000D03*
D13*
X105190000Y-131110000D03*
D14*
X105190000Y-57450000D03*
D13*
X190920000Y-54910000D03*
X190920000Y-134920000D03*
D15*
X118130000Y-64250000D03*
X152275000Y-114825000D03*
X148975000Y-107200000D03*
X159075000Y-100475000D03*
X133425000Y-64675000D03*
X136000000Y-64400000D03*
X135900000Y-105500000D03*
X131300000Y-109300000D03*
X161000000Y-76000000D03*
X144300000Y-119300000D03*
X165300000Y-101600000D03*
X162100000Y-113000000D03*
X141600000Y-119400000D03*
X154600000Y-113500000D03*
X138000000Y-112300000D03*
X165300000Y-99000000D03*
X174500000Y-78100000D03*
X174400000Y-87500000D03*
X161000000Y-74200000D03*
X173500000Y-60000000D03*
X149500000Y-64500000D03*
X134400000Y-76400000D03*
X119300000Y-74900000D03*
X176050000Y-131650000D03*
X186160000Y-136800000D03*
X160975000Y-101850000D03*
X118800000Y-76800000D03*
X135500000Y-66600000D03*
X118600000Y-66700000D03*
X132500000Y-70000000D03*
X138100000Y-101700000D03*
X135400000Y-108600000D03*
X171300000Y-99000000D03*
X167000000Y-74200000D03*
X183900000Y-60000000D03*
X149500000Y-70200000D03*
X132500000Y-80000000D03*
X158750000Y-80150000D03*
X146420000Y-89310000D03*
X153650000Y-86025000D03*
X154900000Y-110750000D03*
X150720000Y-87860000D03*
X147450000Y-91125000D03*
X157700000Y-83000000D03*
X157700000Y-86150000D03*
X130700000Y-76400000D03*
X142000000Y-78200000D03*
X151400000Y-98725000D03*
X152800000Y-109700000D03*
X135100000Y-69000000D03*
X125300000Y-67600000D03*
X141925000Y-99575000D03*
X181750000Y-102425000D03*
X145625000Y-105975000D03*
X154650000Y-104500000D03*
X126100000Y-107000000D03*
X149300000Y-104550000D03*
X128225000Y-100300000D03*
X144425000Y-104500000D03*
X146700000Y-112700000D03*
X183200000Y-108775000D03*
X155500000Y-102600000D03*
X175525000Y-98275000D03*
X152150000Y-111850000D03*
X144950000Y-108750000D03*
X123400000Y-79150000D03*
X139500000Y-90150000D03*
X140800000Y-89000000D03*
X123350000Y-68950000D03*
X138550000Y-71300000D03*
X142975000Y-87200000D03*
D16*
G36*
X195398000Y-139398000D02*
X100712000Y-139398000D01*
X100712000Y-135658094D01*
X187192355Y-135658094D01*
X187758561Y-137028418D01*
X188806068Y-138077754D01*
X190175402Y-138646351D01*
X191658094Y-138647645D01*
X193028418Y-138081439D01*
X194077754Y-137033932D01*
X194646351Y-135664598D01*
X194647645Y-134181906D01*
X194081439Y-132811582D01*
X193033932Y-131762246D01*
X191664598Y-131193649D01*
X190181906Y-131192355D01*
X188811582Y-131758561D01*
X187762246Y-132806068D01*
X187193649Y-134175402D01*
X187192355Y-135658094D01*
X100712000Y-135658094D01*
X100712000Y-131848094D01*
X101462355Y-131848094D01*
X102028561Y-133218418D01*
X103076068Y-134267754D01*
X104445402Y-134836351D01*
X105928094Y-134837645D01*
X107298418Y-134271439D01*
X108347754Y-133223932D01*
X108916351Y-131854598D01*
X108916377Y-131823681D01*
X175172849Y-131823681D01*
X175306082Y-132146131D01*
X175552571Y-132393051D01*
X175874789Y-132526847D01*
X176223681Y-132527151D01*
X176546131Y-132393918D01*
X176793051Y-132147429D01*
X176926847Y-131825211D01*
X176927151Y-131476319D01*
X176793918Y-131153869D01*
X176547429Y-130906949D01*
X176225211Y-130773153D01*
X175876319Y-130772849D01*
X175553869Y-130906082D01*
X175306949Y-131152571D01*
X175173153Y-131474789D01*
X175172849Y-131823681D01*
X108916377Y-131823681D01*
X108917645Y-130371906D01*
X108351439Y-129001582D01*
X107303932Y-127952246D01*
X105934598Y-127383649D01*
X104451906Y-127382355D01*
X103081582Y-127948561D01*
X102032246Y-128996068D01*
X101463649Y-130365402D01*
X101462355Y-131848094D01*
X100712000Y-131848094D01*
X100712000Y-64620000D01*
X104186023Y-64620000D01*
X104290841Y-65146955D01*
X104589337Y-65593686D01*
X105032802Y-65890000D01*
X104589337Y-66186314D01*
X104290841Y-66633045D01*
X104186023Y-67160000D01*
X104290841Y-67686955D01*
X104589337Y-68133686D01*
X105032802Y-68430000D01*
X104589337Y-68726314D01*
X104290841Y-69173045D01*
X104186023Y-69700000D01*
X104290841Y-70226955D01*
X104589337Y-70673686D01*
X105032802Y-70970000D01*
X104589337Y-71266314D01*
X104290841Y-71713045D01*
X104186023Y-72240000D01*
X104290841Y-72766955D01*
X104589337Y-73213686D01*
X105032802Y-73510000D01*
X104589337Y-73806314D01*
X104290841Y-74253045D01*
X104186023Y-74780000D01*
X104290841Y-75306955D01*
X104589337Y-75753686D01*
X105032802Y-76050000D01*
X104589337Y-76346314D01*
X104290841Y-76793045D01*
X104186023Y-77320000D01*
X104290841Y-77846955D01*
X104589337Y-78293686D01*
X105032802Y-78590000D01*
X104589337Y-78886314D01*
X104290841Y-79333045D01*
X104186023Y-79860000D01*
X104290841Y-80386955D01*
X104589337Y-80833686D01*
X105032802Y-81130000D01*
X104589337Y-81426314D01*
X104290841Y-81873045D01*
X104186023Y-82400000D01*
X104290841Y-82926955D01*
X104589337Y-83373686D01*
X105032802Y-83670000D01*
X104589337Y-83966314D01*
X104290841Y-84413045D01*
X104186023Y-84940000D01*
X104290841Y-85466955D01*
X104589337Y-85913686D01*
X105032802Y-86210000D01*
X104589337Y-86506314D01*
X104290841Y-86953045D01*
X104186023Y-87480000D01*
X104290841Y-88006955D01*
X104589337Y-88453686D01*
X105032802Y-88750000D01*
X104589337Y-89046314D01*
X104290841Y-89493045D01*
X104186023Y-90020000D01*
X104290841Y-90546955D01*
X104589337Y-90993686D01*
X105032802Y-91290000D01*
X104589337Y-91586314D01*
X104290841Y-92033045D01*
X104186023Y-92560000D01*
X104290841Y-93086955D01*
X104589337Y-93533686D01*
X105036068Y-93832182D01*
X105088804Y-93842672D01*
X104765296Y-93997267D01*
X104406075Y-94396808D01*
X104255617Y-94760071D01*
X104351243Y-94973000D01*
X105463000Y-94973000D01*
X105463000Y-94953000D01*
X105717000Y-94953000D01*
X105717000Y-94973000D01*
X106828757Y-94973000D01*
X106860000Y-94903432D01*
X106891243Y-94973000D01*
X108003000Y-94973000D01*
X108003000Y-94953000D01*
X108257000Y-94953000D01*
X108257000Y-94973000D01*
X108277000Y-94973000D01*
X108277000Y-95227000D01*
X108257000Y-95227000D01*
X108257000Y-95247000D01*
X108003000Y-95247000D01*
X108003000Y-95227000D01*
X106891243Y-95227000D01*
X106860000Y-95296568D01*
X106828757Y-95227000D01*
X105717000Y-95227000D01*
X105717000Y-95247000D01*
X105463000Y-95247000D01*
X105463000Y-95227000D01*
X104351243Y-95227000D01*
X104255617Y-95439929D01*
X104406075Y-95803192D01*
X104765296Y-96202733D01*
X105088804Y-96357328D01*
X105036068Y-96367818D01*
X104589337Y-96666314D01*
X104290841Y-97113045D01*
X104186023Y-97640000D01*
X104290841Y-98166955D01*
X104589337Y-98613686D01*
X105032802Y-98910000D01*
X104589337Y-99206314D01*
X104290841Y-99653045D01*
X104186023Y-100180000D01*
X104290841Y-100706955D01*
X104589337Y-101153686D01*
X105032802Y-101450000D01*
X104589337Y-101746314D01*
X104290841Y-102193045D01*
X104186023Y-102720000D01*
X104290841Y-103246955D01*
X104589337Y-103693686D01*
X105032802Y-103990000D01*
X104589337Y-104286314D01*
X104290841Y-104733045D01*
X104186023Y-105260000D01*
X104290841Y-105786955D01*
X104589337Y-106233686D01*
X105032802Y-106530000D01*
X104589337Y-106826314D01*
X104290841Y-107273045D01*
X104186023Y-107800000D01*
X104290841Y-108326955D01*
X104589337Y-108773686D01*
X105032802Y-109070000D01*
X104589337Y-109366314D01*
X104290841Y-109813045D01*
X104186023Y-110340000D01*
X104290841Y-110866955D01*
X104589337Y-111313686D01*
X105032802Y-111610000D01*
X104589337Y-111906314D01*
X104290841Y-112353045D01*
X104186023Y-112880000D01*
X104290841Y-113406955D01*
X104589337Y-113853686D01*
X105032802Y-114150000D01*
X104589337Y-114446314D01*
X104290841Y-114893045D01*
X104186023Y-115420000D01*
X104290841Y-115946955D01*
X104589337Y-116393686D01*
X105032802Y-116690000D01*
X104589337Y-116986314D01*
X104290841Y-117433045D01*
X104186023Y-117960000D01*
X104290841Y-118486955D01*
X104589337Y-118933686D01*
X105032802Y-119230000D01*
X104589337Y-119526314D01*
X104290841Y-119973045D01*
X104186023Y-120500000D01*
X104290841Y-121026955D01*
X104589337Y-121473686D01*
X105032802Y-121770000D01*
X104589337Y-122066314D01*
X104290841Y-122513045D01*
X104186023Y-123040000D01*
X104290841Y-123566955D01*
X104589337Y-124013686D01*
X105032802Y-124310000D01*
X104589337Y-124606314D01*
X104290841Y-125053045D01*
X104186023Y-125580000D01*
X104290841Y-126106955D01*
X104589337Y-126553686D01*
X105036068Y-126852182D01*
X105563023Y-126957000D01*
X105616977Y-126957000D01*
X106143932Y-126852182D01*
X106590663Y-126553686D01*
X106860000Y-126150595D01*
X107129337Y-126553686D01*
X107576068Y-126852182D01*
X108103023Y-126957000D01*
X108156977Y-126957000D01*
X108683932Y-126852182D01*
X109130663Y-126553686D01*
X109400000Y-126150595D01*
X109669337Y-126553686D01*
X110116068Y-126852182D01*
X110643023Y-126957000D01*
X110696977Y-126957000D01*
X111223932Y-126852182D01*
X111670663Y-126553686D01*
X111940000Y-126150595D01*
X112209337Y-126553686D01*
X112656068Y-126852182D01*
X113183023Y-126957000D01*
X113236977Y-126957000D01*
X113763932Y-126852182D01*
X114210663Y-126553686D01*
X114407732Y-126258750D01*
X184683000Y-126258750D01*
X184683000Y-126954827D01*
X184763231Y-127148521D01*
X184911478Y-127296769D01*
X185105173Y-127377000D01*
X185801250Y-127377000D01*
X185933000Y-127245250D01*
X185933000Y-126127000D01*
X186187000Y-126127000D01*
X186187000Y-127245250D01*
X186318750Y-127377000D01*
X187014827Y-127377000D01*
X187208522Y-127296769D01*
X187356769Y-127148521D01*
X187437000Y-126954827D01*
X187437000Y-126726466D01*
X187775296Y-127102733D01*
X188260070Y-127334393D01*
X188473000Y-127239391D01*
X188473000Y-126127000D01*
X188727000Y-126127000D01*
X188727000Y-127239391D01*
X188939930Y-127334393D01*
X189424704Y-127102733D01*
X189783925Y-126703192D01*
X189934383Y-126339929D01*
X189838757Y-126127000D01*
X188727000Y-126127000D01*
X188473000Y-126127000D01*
X187361243Y-126127000D01*
X187343890Y-126165640D01*
X187305250Y-126127000D01*
X186187000Y-126127000D01*
X185933000Y-126127000D01*
X184814750Y-126127000D01*
X184683000Y-126258750D01*
X114407732Y-126258750D01*
X114509159Y-126106955D01*
X114613977Y-125580000D01*
X114509159Y-125053045D01*
X114210663Y-124606314D01*
X113767198Y-124310000D01*
X114210663Y-124013686D01*
X114509159Y-123566955D01*
X114613977Y-123040000D01*
X114509159Y-122513045D01*
X114210663Y-122066314D01*
X113767198Y-121770000D01*
X114210663Y-121473686D01*
X114509159Y-121026955D01*
X114530433Y-120920000D01*
X184656023Y-120920000D01*
X184760841Y-121446955D01*
X185059337Y-121893686D01*
X185502802Y-122190000D01*
X185059337Y-122486314D01*
X184760841Y-122933045D01*
X184656023Y-123460000D01*
X184760841Y-123986955D01*
X185059337Y-124433686D01*
X185342666Y-124623000D01*
X185105173Y-124623000D01*
X184911478Y-124703231D01*
X184763231Y-124851479D01*
X184683000Y-125045173D01*
X184683000Y-125741250D01*
X184814750Y-125873000D01*
X185933000Y-125873000D01*
X185933000Y-125853000D01*
X186187000Y-125853000D01*
X186187000Y-125873000D01*
X187305250Y-125873000D01*
X187343890Y-125834360D01*
X187361243Y-125873000D01*
X188473000Y-125873000D01*
X188473000Y-125853000D01*
X188727000Y-125853000D01*
X188727000Y-125873000D01*
X189838757Y-125873000D01*
X189934383Y-125660071D01*
X189783925Y-125296808D01*
X189424704Y-124897267D01*
X189101196Y-124742672D01*
X189153932Y-124732182D01*
X189600663Y-124433686D01*
X189899159Y-123986955D01*
X190003977Y-123460000D01*
X189899159Y-122933045D01*
X189600663Y-122486314D01*
X189157198Y-122190000D01*
X189600663Y-121893686D01*
X189899159Y-121446955D01*
X190003977Y-120920000D01*
X189899159Y-120393045D01*
X189600663Y-119946314D01*
X189153932Y-119647818D01*
X188626977Y-119543000D01*
X188573023Y-119543000D01*
X188046068Y-119647818D01*
X187599337Y-119946314D01*
X187330000Y-120349405D01*
X187060663Y-119946314D01*
X186613932Y-119647818D01*
X186086977Y-119543000D01*
X186033023Y-119543000D01*
X185506068Y-119647818D01*
X185059337Y-119946314D01*
X184760841Y-120393045D01*
X184656023Y-120920000D01*
X114530433Y-120920000D01*
X114613977Y-120500000D01*
X114509159Y-119973045D01*
X114242313Y-119573681D01*
X140722849Y-119573681D01*
X140856082Y-119896131D01*
X141102571Y-120143051D01*
X141424789Y-120276847D01*
X141773681Y-120277151D01*
X142096131Y-120143918D01*
X142343051Y-119897429D01*
X142476847Y-119575211D01*
X142476935Y-119473681D01*
X143422849Y-119473681D01*
X143556082Y-119796131D01*
X143802571Y-120043051D01*
X144124789Y-120176847D01*
X144473681Y-120177151D01*
X144796131Y-120043918D01*
X145043051Y-119797429D01*
X145176847Y-119475211D01*
X145177151Y-119126319D01*
X145043918Y-118803869D01*
X144797429Y-118556949D01*
X144475211Y-118423153D01*
X144126319Y-118422849D01*
X143803869Y-118556082D01*
X143556949Y-118802571D01*
X143423153Y-119124789D01*
X143422849Y-119473681D01*
X142476935Y-119473681D01*
X142477151Y-119226319D01*
X142343918Y-118903869D01*
X142097429Y-118656949D01*
X141775211Y-118523153D01*
X141426319Y-118522849D01*
X141103869Y-118656082D01*
X140856949Y-118902571D01*
X140723153Y-119224789D01*
X140722849Y-119573681D01*
X114242313Y-119573681D01*
X114210663Y-119526314D01*
X113767198Y-119230000D01*
X114210663Y-118933686D01*
X114509159Y-118486955D01*
X114613977Y-117960000D01*
X114509159Y-117433045D01*
X114210663Y-116986314D01*
X113767198Y-116690000D01*
X114210663Y-116393686D01*
X114509159Y-115946955D01*
X114613977Y-115420000D01*
X114530172Y-114998681D01*
X151397849Y-114998681D01*
X151531082Y-115321131D01*
X151777571Y-115568051D01*
X152099789Y-115701847D01*
X152448681Y-115702151D01*
X152771131Y-115568918D01*
X153018051Y-115322429D01*
X153151847Y-115000211D01*
X153152151Y-114651319D01*
X153018918Y-114328869D01*
X152772429Y-114081949D01*
X152450211Y-113948153D01*
X152101319Y-113947849D01*
X151778869Y-114081082D01*
X151531949Y-114327571D01*
X151398153Y-114649789D01*
X151397849Y-114998681D01*
X114530172Y-114998681D01*
X114509159Y-114893045D01*
X114210663Y-114446314D01*
X113767198Y-114150000D01*
X114210663Y-113853686D01*
X114330938Y-113673681D01*
X153722849Y-113673681D01*
X153856082Y-113996131D01*
X154102571Y-114243051D01*
X154424789Y-114376847D01*
X154773681Y-114377151D01*
X155096131Y-114243918D01*
X155343051Y-113997429D01*
X155476847Y-113675211D01*
X155477151Y-113326319D01*
X155414083Y-113173681D01*
X161222849Y-113173681D01*
X161356082Y-113496131D01*
X161602571Y-113743051D01*
X161924789Y-113876847D01*
X162273681Y-113877151D01*
X162596131Y-113743918D01*
X162843051Y-113497429D01*
X162976847Y-113175211D01*
X162977151Y-112826319D01*
X162843918Y-112503869D01*
X162597429Y-112256949D01*
X162275211Y-112123153D01*
X161926319Y-112122849D01*
X161603869Y-112256082D01*
X161356949Y-112502571D01*
X161223153Y-112824789D01*
X161222849Y-113173681D01*
X155414083Y-113173681D01*
X155343918Y-113003869D01*
X155097429Y-112756949D01*
X154775211Y-112623153D01*
X154426319Y-112622849D01*
X154103869Y-112756082D01*
X153856949Y-113002571D01*
X153723153Y-113324789D01*
X153722849Y-113673681D01*
X114330938Y-113673681D01*
X114509159Y-113406955D01*
X114613977Y-112880000D01*
X114533156Y-112473681D01*
X137122849Y-112473681D01*
X137256082Y-112796131D01*
X137502571Y-113043051D01*
X137824789Y-113176847D01*
X138173681Y-113177151D01*
X138496131Y-113043918D01*
X138666665Y-112873681D01*
X145822849Y-112873681D01*
X145956082Y-113196131D01*
X146202571Y-113443051D01*
X146524789Y-113576847D01*
X146873681Y-113577151D01*
X147196131Y-113443918D01*
X147443051Y-113197429D01*
X147576847Y-112875211D01*
X147577151Y-112526319D01*
X147443918Y-112203869D01*
X147264045Y-112023681D01*
X151272849Y-112023681D01*
X151406082Y-112346131D01*
X151652571Y-112593051D01*
X151974789Y-112726847D01*
X152323681Y-112727151D01*
X152646131Y-112593918D01*
X152893051Y-112347429D01*
X153026847Y-112025211D01*
X153027151Y-111676319D01*
X152893918Y-111353869D01*
X152647429Y-111106949D01*
X152325211Y-110973153D01*
X151976319Y-110972849D01*
X151653869Y-111106082D01*
X151406949Y-111352571D01*
X151273153Y-111674789D01*
X151272849Y-112023681D01*
X147264045Y-112023681D01*
X147197429Y-111956949D01*
X146875211Y-111823153D01*
X146526319Y-111822849D01*
X146203869Y-111956082D01*
X145956949Y-112202571D01*
X145823153Y-112524789D01*
X145822849Y-112873681D01*
X138666665Y-112873681D01*
X138743051Y-112797429D01*
X138876847Y-112475211D01*
X138877151Y-112126319D01*
X138743918Y-111803869D01*
X138497429Y-111556949D01*
X138175211Y-111423153D01*
X137826319Y-111422849D01*
X137503869Y-111556082D01*
X137256949Y-111802571D01*
X137123153Y-112124789D01*
X137122849Y-112473681D01*
X114533156Y-112473681D01*
X114509159Y-112353045D01*
X114210663Y-111906314D01*
X113767198Y-111610000D01*
X114210663Y-111313686D01*
X114471255Y-110923681D01*
X154022849Y-110923681D01*
X154156082Y-111246131D01*
X154402571Y-111493051D01*
X154724789Y-111626847D01*
X155073681Y-111627151D01*
X155396131Y-111493918D01*
X155643051Y-111247429D01*
X155776847Y-110925211D01*
X155777151Y-110576319D01*
X155643918Y-110253869D01*
X155397429Y-110006949D01*
X155075211Y-109873153D01*
X154726319Y-109872849D01*
X154403869Y-110006082D01*
X154156949Y-110252571D01*
X154023153Y-110574789D01*
X154022849Y-110923681D01*
X114471255Y-110923681D01*
X114509159Y-110866955D01*
X114613977Y-110340000D01*
X114509159Y-109813045D01*
X114282404Y-109473681D01*
X130422849Y-109473681D01*
X130556082Y-109796131D01*
X130802571Y-110043051D01*
X131124789Y-110176847D01*
X131473681Y-110177151D01*
X131796131Y-110043918D01*
X131966665Y-109873681D01*
X151922849Y-109873681D01*
X152056082Y-110196131D01*
X152302571Y-110443051D01*
X152624789Y-110576847D01*
X152973681Y-110577151D01*
X153296131Y-110443918D01*
X153543051Y-110197429D01*
X153676847Y-109875211D01*
X153677151Y-109526319D01*
X153543918Y-109203869D01*
X153297429Y-108956949D01*
X153277518Y-108948681D01*
X182322849Y-108948681D01*
X182456082Y-109271131D01*
X182702571Y-109518051D01*
X183024789Y-109651847D01*
X183373681Y-109652151D01*
X183696131Y-109518918D01*
X183943051Y-109272429D01*
X184076847Y-108950211D01*
X184076925Y-108860000D01*
X184696023Y-108860000D01*
X184800841Y-109386955D01*
X185099337Y-109833686D01*
X185542802Y-110130000D01*
X185099337Y-110426314D01*
X184800841Y-110873045D01*
X184696023Y-111400000D01*
X184800841Y-111926955D01*
X185099337Y-112373686D01*
X185367215Y-112552676D01*
X185250000Y-112552676D01*
X185054706Y-112589423D01*
X184875340Y-112704842D01*
X184755010Y-112880951D01*
X184712676Y-113090000D01*
X184712676Y-114790000D01*
X184749423Y-114985294D01*
X184864842Y-115164660D01*
X185040951Y-115284990D01*
X185250000Y-115327324D01*
X186950000Y-115327324D01*
X187145294Y-115290577D01*
X187324660Y-115175158D01*
X187444990Y-114999049D01*
X187487324Y-114790000D01*
X187487324Y-114677948D01*
X187815296Y-115042733D01*
X188300070Y-115274393D01*
X188513000Y-115179391D01*
X188513000Y-114067000D01*
X188767000Y-114067000D01*
X188767000Y-115179391D01*
X188979930Y-115274393D01*
X189464704Y-115042733D01*
X189823925Y-114643192D01*
X189974383Y-114279929D01*
X189878757Y-114067000D01*
X188767000Y-114067000D01*
X188513000Y-114067000D01*
X188493000Y-114067000D01*
X188493000Y-113813000D01*
X188513000Y-113813000D01*
X188513000Y-113793000D01*
X188767000Y-113793000D01*
X188767000Y-113813000D01*
X189878757Y-113813000D01*
X189974383Y-113600071D01*
X189823925Y-113236808D01*
X189464704Y-112837267D01*
X189141196Y-112682672D01*
X189193932Y-112672182D01*
X189640663Y-112373686D01*
X189939159Y-111926955D01*
X190043977Y-111400000D01*
X189939159Y-110873045D01*
X189640663Y-110426314D01*
X189197198Y-110130000D01*
X189640663Y-109833686D01*
X189939159Y-109386955D01*
X190043977Y-108860000D01*
X189939159Y-108333045D01*
X189640663Y-107886314D01*
X189193932Y-107587818D01*
X188666977Y-107483000D01*
X188613023Y-107483000D01*
X188086068Y-107587818D01*
X187639337Y-107886314D01*
X187370000Y-108289405D01*
X187100663Y-107886314D01*
X186653932Y-107587818D01*
X186126977Y-107483000D01*
X186073023Y-107483000D01*
X185546068Y-107587818D01*
X185099337Y-107886314D01*
X184800841Y-108333045D01*
X184696023Y-108860000D01*
X184076925Y-108860000D01*
X184077151Y-108601319D01*
X183943918Y-108278869D01*
X183697429Y-108031949D01*
X183375211Y-107898153D01*
X183026319Y-107897849D01*
X182703869Y-108031082D01*
X182456949Y-108277571D01*
X182323153Y-108599789D01*
X182322849Y-108948681D01*
X153277518Y-108948681D01*
X152975211Y-108823153D01*
X152626319Y-108822849D01*
X152303869Y-108956082D01*
X152056949Y-109202571D01*
X151923153Y-109524789D01*
X151922849Y-109873681D01*
X131966665Y-109873681D01*
X132043051Y-109797429D01*
X132176847Y-109475211D01*
X132177151Y-109126319D01*
X132093424Y-108923681D01*
X144072849Y-108923681D01*
X144206082Y-109246131D01*
X144452571Y-109493051D01*
X144774789Y-109626847D01*
X145123681Y-109627151D01*
X145446131Y-109493918D01*
X145693051Y-109247429D01*
X145826847Y-108925211D01*
X145827151Y-108576319D01*
X145693918Y-108253869D01*
X145447429Y-108006949D01*
X145125211Y-107873153D01*
X144776319Y-107872849D01*
X144453869Y-108006082D01*
X144206949Y-108252571D01*
X144073153Y-108574789D01*
X144072849Y-108923681D01*
X132093424Y-108923681D01*
X132043918Y-108803869D01*
X131797429Y-108556949D01*
X131475211Y-108423153D01*
X131126319Y-108422849D01*
X130803869Y-108556082D01*
X130556949Y-108802571D01*
X130423153Y-109124789D01*
X130422849Y-109473681D01*
X114282404Y-109473681D01*
X114210663Y-109366314D01*
X113767198Y-109070000D01*
X114210663Y-108773686D01*
X114509159Y-108326955D01*
X114613977Y-107800000D01*
X114509159Y-107273045D01*
X114442767Y-107173681D01*
X125222849Y-107173681D01*
X125356082Y-107496131D01*
X125602571Y-107743051D01*
X125924789Y-107876847D01*
X126273681Y-107877151D01*
X126596131Y-107743918D01*
X126843051Y-107497429D01*
X126894435Y-107373681D01*
X148097849Y-107373681D01*
X148231082Y-107696131D01*
X148477571Y-107943051D01*
X148799789Y-108076847D01*
X149148681Y-108077151D01*
X149471131Y-107943918D01*
X149718051Y-107697429D01*
X149851847Y-107375211D01*
X149852151Y-107026319D01*
X149718918Y-106703869D01*
X149472429Y-106456949D01*
X149150211Y-106323153D01*
X148801319Y-106322849D01*
X148478869Y-106456082D01*
X148231949Y-106702571D01*
X148098153Y-107024789D01*
X148097849Y-107373681D01*
X126894435Y-107373681D01*
X126976847Y-107175211D01*
X126977151Y-106826319D01*
X126843918Y-106503869D01*
X126597429Y-106256949D01*
X126275211Y-106123153D01*
X125926319Y-106122849D01*
X125603869Y-106256082D01*
X125356949Y-106502571D01*
X125223153Y-106824789D01*
X125222849Y-107173681D01*
X114442767Y-107173681D01*
X114210663Y-106826314D01*
X113767198Y-106530000D01*
X114210663Y-106233686D01*
X114509159Y-105786955D01*
X114531690Y-105673681D01*
X135022849Y-105673681D01*
X135156082Y-105996131D01*
X135402571Y-106243051D01*
X135724789Y-106376847D01*
X136073681Y-106377151D01*
X136396131Y-106243918D01*
X136491534Y-106148681D01*
X144747849Y-106148681D01*
X144881082Y-106471131D01*
X145127571Y-106718051D01*
X145449789Y-106851847D01*
X145798681Y-106852151D01*
X146121131Y-106718918D01*
X146368051Y-106472429D01*
X146501847Y-106150211D01*
X146502151Y-105801319D01*
X146368918Y-105478869D01*
X146122429Y-105231949D01*
X145800211Y-105098153D01*
X145451319Y-105097849D01*
X145128869Y-105231082D01*
X144881949Y-105477571D01*
X144748153Y-105799789D01*
X144747849Y-106148681D01*
X136491534Y-106148681D01*
X136643051Y-105997429D01*
X136776847Y-105675211D01*
X136777151Y-105326319D01*
X136643918Y-105003869D01*
X136397429Y-104756949D01*
X136196897Y-104673681D01*
X143547849Y-104673681D01*
X143681082Y-104996131D01*
X143927571Y-105243051D01*
X144249789Y-105376847D01*
X144598681Y-105377151D01*
X144921131Y-105243918D01*
X145168051Y-104997429D01*
X145281720Y-104723681D01*
X148422849Y-104723681D01*
X148556082Y-105046131D01*
X148802571Y-105293051D01*
X149124789Y-105426847D01*
X149473681Y-105427151D01*
X149796131Y-105293918D01*
X150043051Y-105047429D01*
X150176847Y-104725211D01*
X150176891Y-104673681D01*
X153772849Y-104673681D01*
X153906082Y-104996131D01*
X154152571Y-105243051D01*
X154474789Y-105376847D01*
X154823681Y-105377151D01*
X155146131Y-105243918D01*
X155393051Y-104997429D01*
X155526847Y-104675211D01*
X155527151Y-104326319D01*
X155393918Y-104003869D01*
X155147429Y-103756949D01*
X154825211Y-103623153D01*
X154476319Y-103622849D01*
X154153869Y-103756082D01*
X153906949Y-104002571D01*
X153773153Y-104324789D01*
X153772849Y-104673681D01*
X150176891Y-104673681D01*
X150177151Y-104376319D01*
X150043918Y-104053869D01*
X149797429Y-103806949D01*
X149475211Y-103673153D01*
X149126319Y-103672849D01*
X148803869Y-103806082D01*
X148556949Y-104052571D01*
X148423153Y-104374789D01*
X148422849Y-104723681D01*
X145281720Y-104723681D01*
X145301847Y-104675211D01*
X145302151Y-104326319D01*
X145168918Y-104003869D01*
X144922429Y-103756949D01*
X144600211Y-103623153D01*
X144251319Y-103622849D01*
X143928869Y-103756082D01*
X143681949Y-104002571D01*
X143548153Y-104324789D01*
X143547849Y-104673681D01*
X136196897Y-104673681D01*
X136075211Y-104623153D01*
X135726319Y-104622849D01*
X135403869Y-104756082D01*
X135156949Y-105002571D01*
X135023153Y-105324789D01*
X135022849Y-105673681D01*
X114531690Y-105673681D01*
X114613977Y-105260000D01*
X114509159Y-104733045D01*
X114210663Y-104286314D01*
X113767198Y-103990000D01*
X114210663Y-103693686D01*
X114509159Y-103246955D01*
X114603299Y-102773681D01*
X154622849Y-102773681D01*
X154756082Y-103096131D01*
X155002571Y-103343051D01*
X155324789Y-103476847D01*
X155673681Y-103477151D01*
X155996131Y-103343918D01*
X156243051Y-103097429D01*
X156376847Y-102775211D01*
X156377000Y-102598681D01*
X180872849Y-102598681D01*
X181006082Y-102921131D01*
X181252571Y-103168051D01*
X181574789Y-103301847D01*
X181923681Y-103302151D01*
X182246131Y-103168918D01*
X182493051Y-102922429D01*
X182626847Y-102600211D01*
X182627151Y-102251319D01*
X182493918Y-101928869D01*
X182247429Y-101681949D01*
X181925211Y-101548153D01*
X181576319Y-101547849D01*
X181253869Y-101681082D01*
X181006949Y-101927571D01*
X180873153Y-102249789D01*
X180872849Y-102598681D01*
X156377000Y-102598681D01*
X156377151Y-102426319D01*
X156243918Y-102103869D01*
X155997429Y-101856949D01*
X155796897Y-101773681D01*
X164422849Y-101773681D01*
X164556082Y-102096131D01*
X164802571Y-102343051D01*
X165124789Y-102476847D01*
X165473681Y-102477151D01*
X165796131Y-102343918D01*
X166043051Y-102097429D01*
X166176847Y-101775211D01*
X166177151Y-101426319D01*
X166043918Y-101103869D01*
X165797429Y-100856949D01*
X165475211Y-100723153D01*
X165126319Y-100722849D01*
X164803869Y-100856082D01*
X164556949Y-101102571D01*
X164423153Y-101424789D01*
X164422849Y-101773681D01*
X155796897Y-101773681D01*
X155675211Y-101723153D01*
X155326319Y-101722849D01*
X155003869Y-101856082D01*
X154756949Y-102102571D01*
X154623153Y-102424789D01*
X154622849Y-102773681D01*
X114603299Y-102773681D01*
X114613977Y-102720000D01*
X114509159Y-102193045D01*
X114210663Y-101746314D01*
X113767198Y-101450000D01*
X114210663Y-101153686D01*
X114509159Y-100706955D01*
X114555560Y-100473681D01*
X127347849Y-100473681D01*
X127481082Y-100796131D01*
X127727571Y-101043051D01*
X128049789Y-101176847D01*
X128398681Y-101177151D01*
X128721131Y-101043918D01*
X128968051Y-100797429D01*
X129029816Y-100648681D01*
X158197849Y-100648681D01*
X158331082Y-100971131D01*
X158577571Y-101218051D01*
X158899789Y-101351847D01*
X159248681Y-101352151D01*
X159571131Y-101218918D01*
X159818051Y-100972429D01*
X159951847Y-100650211D01*
X159952151Y-100301319D01*
X159818918Y-99978869D01*
X159572429Y-99731949D01*
X159250211Y-99598153D01*
X158901319Y-99597849D01*
X158578869Y-99731082D01*
X158331949Y-99977571D01*
X158198153Y-100299789D01*
X158197849Y-100648681D01*
X129029816Y-100648681D01*
X129101847Y-100475211D01*
X129102151Y-100126319D01*
X128968918Y-99803869D01*
X128913827Y-99748681D01*
X141047849Y-99748681D01*
X141181082Y-100071131D01*
X141427571Y-100318051D01*
X141749789Y-100451847D01*
X142098681Y-100452151D01*
X142421131Y-100318918D01*
X142668051Y-100072429D01*
X142801847Y-99750211D01*
X142802151Y-99401319D01*
X142668918Y-99078869D01*
X142489045Y-98898681D01*
X150522849Y-98898681D01*
X150656082Y-99221131D01*
X150902571Y-99468051D01*
X151224789Y-99601847D01*
X151573681Y-99602151D01*
X151896131Y-99468918D01*
X152143051Y-99222429D01*
X152163292Y-99173681D01*
X164422849Y-99173681D01*
X164556082Y-99496131D01*
X164802571Y-99743051D01*
X165124789Y-99876847D01*
X165473681Y-99877151D01*
X165796131Y-99743918D01*
X166043051Y-99497429D01*
X166176847Y-99175211D01*
X166177151Y-98826319D01*
X166043918Y-98503869D01*
X165988827Y-98448681D01*
X174647849Y-98448681D01*
X174781082Y-98771131D01*
X175027571Y-99018051D01*
X175349789Y-99151847D01*
X175698681Y-99152151D01*
X176021131Y-99018918D01*
X176268051Y-98772429D01*
X176401847Y-98450211D01*
X176402151Y-98101319D01*
X176268918Y-97778869D01*
X176022429Y-97531949D01*
X175700211Y-97398153D01*
X175351319Y-97397849D01*
X175028869Y-97531082D01*
X174781949Y-97777571D01*
X174648153Y-98099789D01*
X174647849Y-98448681D01*
X165988827Y-98448681D01*
X165797429Y-98256949D01*
X165475211Y-98123153D01*
X165126319Y-98122849D01*
X164803869Y-98256082D01*
X164556949Y-98502571D01*
X164423153Y-98824789D01*
X164422849Y-99173681D01*
X152163292Y-99173681D01*
X152276847Y-98900211D01*
X152277151Y-98551319D01*
X152143918Y-98228869D01*
X151897429Y-97981949D01*
X151575211Y-97848153D01*
X151226319Y-97847849D01*
X150903869Y-97981082D01*
X150656949Y-98227571D01*
X150523153Y-98549789D01*
X150522849Y-98898681D01*
X142489045Y-98898681D01*
X142422429Y-98831949D01*
X142100211Y-98698153D01*
X141751319Y-98697849D01*
X141428869Y-98831082D01*
X141181949Y-99077571D01*
X141048153Y-99399789D01*
X141047849Y-99748681D01*
X128913827Y-99748681D01*
X128722429Y-99556949D01*
X128400211Y-99423153D01*
X128051319Y-99422849D01*
X127728869Y-99556082D01*
X127481949Y-99802571D01*
X127348153Y-100124789D01*
X127347849Y-100473681D01*
X114555560Y-100473681D01*
X114613977Y-100180000D01*
X114509159Y-99653045D01*
X114210663Y-99206314D01*
X113767198Y-98910000D01*
X114210663Y-98613686D01*
X114509159Y-98166955D01*
X114613977Y-97640000D01*
X114509159Y-97113045D01*
X114210663Y-96666314D01*
X113767198Y-96370000D01*
X114210663Y-96073686D01*
X114509159Y-95626955D01*
X114613977Y-95100000D01*
X114509159Y-94573045D01*
X114210663Y-94126314D01*
X113767198Y-93830000D01*
X114210663Y-93533686D01*
X114509159Y-93086955D01*
X114613977Y-92560000D01*
X114509159Y-92033045D01*
X114210663Y-91586314D01*
X113780191Y-91298681D01*
X146572849Y-91298681D01*
X146706082Y-91621131D01*
X146952571Y-91868051D01*
X147274789Y-92001847D01*
X147623681Y-92002151D01*
X147946131Y-91868918D01*
X148193051Y-91622429D01*
X148326847Y-91300211D01*
X148327151Y-90951319D01*
X148193918Y-90628869D01*
X147947429Y-90381949D01*
X147625211Y-90248153D01*
X147276319Y-90247849D01*
X146953869Y-90381082D01*
X146706949Y-90627571D01*
X146573153Y-90949789D01*
X146572849Y-91298681D01*
X113780191Y-91298681D01*
X113767198Y-91290000D01*
X114210663Y-90993686D01*
X114509159Y-90546955D01*
X114553571Y-90323681D01*
X138622849Y-90323681D01*
X138756082Y-90646131D01*
X139002571Y-90893051D01*
X139324789Y-91026847D01*
X139673681Y-91027151D01*
X139996131Y-90893918D01*
X140243051Y-90647429D01*
X140376847Y-90325211D01*
X140377151Y-89976319D01*
X140265369Y-89705783D01*
X140302571Y-89743051D01*
X140624789Y-89876847D01*
X140973681Y-89877151D01*
X141296131Y-89743918D01*
X141543051Y-89497429D01*
X141548759Y-89483681D01*
X145542849Y-89483681D01*
X145676082Y-89806131D01*
X145922571Y-90053051D01*
X146244789Y-90186847D01*
X146593681Y-90187151D01*
X146916131Y-90053918D01*
X147163051Y-89807429D01*
X147296847Y-89485211D01*
X147297151Y-89136319D01*
X147163918Y-88813869D01*
X146917429Y-88566949D01*
X146595211Y-88433153D01*
X146246319Y-88432849D01*
X145923869Y-88566082D01*
X145676949Y-88812571D01*
X145543153Y-89134789D01*
X145542849Y-89483681D01*
X141548759Y-89483681D01*
X141676847Y-89175211D01*
X141677151Y-88826319D01*
X141543918Y-88503869D01*
X141297429Y-88256949D01*
X140975211Y-88123153D01*
X140626319Y-88122849D01*
X140303869Y-88256082D01*
X140056949Y-88502571D01*
X139923153Y-88824789D01*
X139922849Y-89173681D01*
X140034631Y-89444217D01*
X139997429Y-89406949D01*
X139675211Y-89273153D01*
X139326319Y-89272849D01*
X139003869Y-89406082D01*
X138756949Y-89652571D01*
X138623153Y-89974789D01*
X138622849Y-90323681D01*
X114553571Y-90323681D01*
X114613977Y-90020000D01*
X114509159Y-89493045D01*
X114210663Y-89046314D01*
X113767198Y-88750000D01*
X114210663Y-88453686D01*
X114509159Y-88006955D01*
X114613977Y-87480000D01*
X114592829Y-87373681D01*
X142097849Y-87373681D01*
X142231082Y-87696131D01*
X142477571Y-87943051D01*
X142799789Y-88076847D01*
X143148681Y-88077151D01*
X143253886Y-88033681D01*
X149842849Y-88033681D01*
X149976082Y-88356131D01*
X150222571Y-88603051D01*
X150544789Y-88736847D01*
X150893681Y-88737151D01*
X151216131Y-88603918D01*
X151463051Y-88357429D01*
X151596847Y-88035211D01*
X151597151Y-87686319D01*
X151591930Y-87673681D01*
X173522849Y-87673681D01*
X173656082Y-87996131D01*
X173902571Y-88243051D01*
X174224789Y-88376847D01*
X174573681Y-88377151D01*
X174896131Y-88243918D01*
X175143051Y-87997429D01*
X175276847Y-87675211D01*
X175277151Y-87326319D01*
X175143918Y-87003869D01*
X174897429Y-86756949D01*
X174575211Y-86623153D01*
X174226319Y-86622849D01*
X173903869Y-86756082D01*
X173656949Y-87002571D01*
X173523153Y-87324789D01*
X173522849Y-87673681D01*
X151591930Y-87673681D01*
X151463918Y-87363869D01*
X151217429Y-87116949D01*
X150895211Y-86983153D01*
X150546319Y-86982849D01*
X150223869Y-87116082D01*
X149976949Y-87362571D01*
X149843153Y-87684789D01*
X149842849Y-88033681D01*
X143253886Y-88033681D01*
X143471131Y-87943918D01*
X143718051Y-87697429D01*
X143851847Y-87375211D01*
X143852151Y-87026319D01*
X143718918Y-86703869D01*
X143472429Y-86456949D01*
X143150211Y-86323153D01*
X142801319Y-86322849D01*
X142478869Y-86456082D01*
X142231949Y-86702571D01*
X142098153Y-87024789D01*
X142097849Y-87373681D01*
X114592829Y-87373681D01*
X114509159Y-86953045D01*
X114210663Y-86506314D01*
X113767198Y-86210000D01*
X113784138Y-86198681D01*
X152772849Y-86198681D01*
X152906082Y-86521131D01*
X153152571Y-86768051D01*
X153474789Y-86901847D01*
X153823681Y-86902151D01*
X154146131Y-86768918D01*
X154393051Y-86522429D01*
X154475578Y-86323681D01*
X156822849Y-86323681D01*
X156956082Y-86646131D01*
X157202571Y-86893051D01*
X157524789Y-87026847D01*
X157873681Y-87027151D01*
X158196131Y-86893918D01*
X158443051Y-86647429D01*
X158576847Y-86325211D01*
X158577151Y-85976319D01*
X158443918Y-85653869D01*
X158197429Y-85406949D01*
X157875211Y-85273153D01*
X157526319Y-85272849D01*
X157203869Y-85406082D01*
X156956949Y-85652571D01*
X156823153Y-85974789D01*
X156822849Y-86323681D01*
X154475578Y-86323681D01*
X154526847Y-86200211D01*
X154527151Y-85851319D01*
X154393918Y-85528869D01*
X154147429Y-85281949D01*
X153825211Y-85148153D01*
X153476319Y-85147849D01*
X153153869Y-85281082D01*
X152906949Y-85527571D01*
X152773153Y-85849789D01*
X152772849Y-86198681D01*
X113784138Y-86198681D01*
X114210663Y-85913686D01*
X114509159Y-85466955D01*
X114613977Y-84940000D01*
X114509159Y-84413045D01*
X114210663Y-83966314D01*
X113767198Y-83670000D01*
X114210663Y-83373686D01*
X114344302Y-83173681D01*
X156822849Y-83173681D01*
X156956082Y-83496131D01*
X157202571Y-83743051D01*
X157524789Y-83876847D01*
X157873681Y-83877151D01*
X158196131Y-83743918D01*
X158443051Y-83497429D01*
X158576847Y-83175211D01*
X158577151Y-82826319D01*
X158443918Y-82503869D01*
X158197429Y-82256949D01*
X157875211Y-82123153D01*
X157526319Y-82122849D01*
X157203869Y-82256082D01*
X156956949Y-82502571D01*
X156823153Y-82824789D01*
X156822849Y-83173681D01*
X114344302Y-83173681D01*
X114509159Y-82926955D01*
X114613977Y-82400000D01*
X114509159Y-81873045D01*
X114210663Y-81426314D01*
X113767198Y-81130000D01*
X114210663Y-80833686D01*
X114509159Y-80386955D01*
X114521744Y-80323681D01*
X157872849Y-80323681D01*
X158006082Y-80646131D01*
X158252571Y-80893051D01*
X158574789Y-81026847D01*
X158923681Y-81027151D01*
X159246131Y-80893918D01*
X159493051Y-80647429D01*
X159626847Y-80325211D01*
X159627151Y-79976319D01*
X159493918Y-79653869D01*
X159247429Y-79406949D01*
X158925211Y-79273153D01*
X158576319Y-79272849D01*
X158253869Y-79406082D01*
X158006949Y-79652571D01*
X157873153Y-79974789D01*
X157872849Y-80323681D01*
X114521744Y-80323681D01*
X114613977Y-79860000D01*
X114509159Y-79333045D01*
X114502903Y-79323681D01*
X122522849Y-79323681D01*
X122656082Y-79646131D01*
X122902571Y-79893051D01*
X123224789Y-80026847D01*
X123573681Y-80027151D01*
X123896131Y-79893918D01*
X124143051Y-79647429D01*
X124276847Y-79325211D01*
X124277151Y-78976319D01*
X124143918Y-78653869D01*
X123897429Y-78406949D01*
X123817311Y-78373681D01*
X141122849Y-78373681D01*
X141256082Y-78696131D01*
X141502571Y-78943051D01*
X141824789Y-79076847D01*
X142173681Y-79077151D01*
X142496131Y-78943918D01*
X142743051Y-78697429D01*
X142876847Y-78375211D01*
X142876935Y-78273681D01*
X173622849Y-78273681D01*
X173756082Y-78596131D01*
X174002571Y-78843051D01*
X174324789Y-78976847D01*
X174673681Y-78977151D01*
X174996131Y-78843918D01*
X175243051Y-78597429D01*
X175376847Y-78275211D01*
X175377151Y-77926319D01*
X175243918Y-77603869D01*
X174997429Y-77356949D01*
X174675211Y-77223153D01*
X174326319Y-77222849D01*
X174003869Y-77356082D01*
X173756949Y-77602571D01*
X173623153Y-77924789D01*
X173622849Y-78273681D01*
X142876935Y-78273681D01*
X142877151Y-78026319D01*
X142743918Y-77703869D01*
X142497429Y-77456949D01*
X142175211Y-77323153D01*
X141826319Y-77322849D01*
X141503869Y-77456082D01*
X141256949Y-77702571D01*
X141123153Y-78024789D01*
X141122849Y-78373681D01*
X123817311Y-78373681D01*
X123575211Y-78273153D01*
X123226319Y-78272849D01*
X122903869Y-78406082D01*
X122656949Y-78652571D01*
X122523153Y-78974789D01*
X122522849Y-79323681D01*
X114502903Y-79323681D01*
X114210663Y-78886314D01*
X113767198Y-78590000D01*
X114210663Y-78293686D01*
X114509159Y-77846955D01*
X114613977Y-77320000D01*
X114509159Y-76793045D01*
X114362585Y-76573681D01*
X129822849Y-76573681D01*
X129956082Y-76896131D01*
X130202571Y-77143051D01*
X130524789Y-77276847D01*
X130873681Y-77277151D01*
X131196131Y-77143918D01*
X131443051Y-76897429D01*
X131576847Y-76575211D01*
X131576848Y-76573681D01*
X133522849Y-76573681D01*
X133656082Y-76896131D01*
X133902571Y-77143051D01*
X134224789Y-77276847D01*
X134573681Y-77277151D01*
X134896131Y-77143918D01*
X135143051Y-76897429D01*
X135276847Y-76575211D01*
X135277151Y-76226319D01*
X135255402Y-76173681D01*
X160122849Y-76173681D01*
X160256082Y-76496131D01*
X160502571Y-76743051D01*
X160824789Y-76876847D01*
X161173681Y-76877151D01*
X161496131Y-76743918D01*
X161743051Y-76497429D01*
X161876847Y-76175211D01*
X161877151Y-75826319D01*
X161743918Y-75503869D01*
X161497429Y-75256949D01*
X161175211Y-75123153D01*
X160826319Y-75122849D01*
X160503869Y-75256082D01*
X160256949Y-75502571D01*
X160123153Y-75824789D01*
X160122849Y-76173681D01*
X135255402Y-76173681D01*
X135143918Y-75903869D01*
X134897429Y-75656949D01*
X134575211Y-75523153D01*
X134226319Y-75522849D01*
X133903869Y-75656082D01*
X133656949Y-75902571D01*
X133523153Y-76224789D01*
X133522849Y-76573681D01*
X131576848Y-76573681D01*
X131577151Y-76226319D01*
X131443918Y-75903869D01*
X131197429Y-75656949D01*
X130875211Y-75523153D01*
X130526319Y-75522849D01*
X130203869Y-75656082D01*
X129956949Y-75902571D01*
X129823153Y-76224789D01*
X129822849Y-76573681D01*
X114362585Y-76573681D01*
X114210663Y-76346314D01*
X113767198Y-76050000D01*
X114210663Y-75753686D01*
X114509159Y-75306955D01*
X114555560Y-75073681D01*
X118422849Y-75073681D01*
X118556082Y-75396131D01*
X118802571Y-75643051D01*
X119124789Y-75776847D01*
X119473681Y-75777151D01*
X119796131Y-75643918D01*
X120043051Y-75397429D01*
X120176847Y-75075211D01*
X120177151Y-74726319D01*
X120043918Y-74403869D01*
X120013783Y-74373681D01*
X160122849Y-74373681D01*
X160256082Y-74696131D01*
X160502571Y-74943051D01*
X160824789Y-75076847D01*
X161173681Y-75077151D01*
X161496131Y-74943918D01*
X161743051Y-74697429D01*
X161876847Y-74375211D01*
X161877151Y-74026319D01*
X161743918Y-73703869D01*
X161497429Y-73456949D01*
X161175211Y-73323153D01*
X160826319Y-73322849D01*
X160503869Y-73456082D01*
X160256949Y-73702571D01*
X160123153Y-74024789D01*
X160122849Y-74373681D01*
X120013783Y-74373681D01*
X119797429Y-74156949D01*
X119475211Y-74023153D01*
X119126319Y-74022849D01*
X118803869Y-74156082D01*
X118556949Y-74402571D01*
X118423153Y-74724789D01*
X118422849Y-75073681D01*
X114555560Y-75073681D01*
X114613977Y-74780000D01*
X114509159Y-74253045D01*
X114210663Y-73806314D01*
X113767198Y-73510000D01*
X114210663Y-73213686D01*
X114509159Y-72766955D01*
X114613977Y-72240000D01*
X114509159Y-71713045D01*
X114349222Y-71473681D01*
X137672849Y-71473681D01*
X137806082Y-71796131D01*
X138052571Y-72043051D01*
X138374789Y-72176847D01*
X138723681Y-72177151D01*
X139046131Y-72043918D01*
X139293051Y-71797429D01*
X139426847Y-71475211D01*
X139427151Y-71126319D01*
X139293918Y-70803869D01*
X139047429Y-70556949D01*
X138725211Y-70423153D01*
X138376319Y-70422849D01*
X138053869Y-70556082D01*
X137806949Y-70802571D01*
X137673153Y-71124789D01*
X137672849Y-71473681D01*
X114349222Y-71473681D01*
X114210663Y-71266314D01*
X113767198Y-70970000D01*
X114210663Y-70673686D01*
X114509159Y-70226955D01*
X114613977Y-69700000D01*
X114509159Y-69173045D01*
X114476176Y-69123681D01*
X122472849Y-69123681D01*
X122606082Y-69446131D01*
X122852571Y-69693051D01*
X123174789Y-69826847D01*
X123523681Y-69827151D01*
X123846131Y-69693918D01*
X124093051Y-69447429D01*
X124206720Y-69173681D01*
X134222849Y-69173681D01*
X134356082Y-69496131D01*
X134602571Y-69743051D01*
X134924789Y-69876847D01*
X135273681Y-69877151D01*
X135596131Y-69743918D01*
X135843051Y-69497429D01*
X135976847Y-69175211D01*
X135977151Y-68826319D01*
X135843918Y-68503869D01*
X135597429Y-68256949D01*
X135275211Y-68123153D01*
X134926319Y-68122849D01*
X134603869Y-68256082D01*
X134356949Y-68502571D01*
X134223153Y-68824789D01*
X134222849Y-69173681D01*
X124206720Y-69173681D01*
X124226847Y-69125211D01*
X124227151Y-68776319D01*
X124093918Y-68453869D01*
X123847429Y-68206949D01*
X123525211Y-68073153D01*
X123176319Y-68072849D01*
X122853869Y-68206082D01*
X122606949Y-68452571D01*
X122473153Y-68774789D01*
X122472849Y-69123681D01*
X114476176Y-69123681D01*
X114210663Y-68726314D01*
X113767198Y-68430000D01*
X114210663Y-68133686D01*
X114451210Y-67773681D01*
X124422849Y-67773681D01*
X124556082Y-68096131D01*
X124802571Y-68343051D01*
X125124789Y-68476847D01*
X125473681Y-68477151D01*
X125796131Y-68343918D01*
X126043051Y-68097429D01*
X126176847Y-67775211D01*
X126177151Y-67426319D01*
X126043918Y-67103869D01*
X125797429Y-66856949D01*
X125475211Y-66723153D01*
X125126319Y-66722849D01*
X124803869Y-66856082D01*
X124556949Y-67102571D01*
X124423153Y-67424789D01*
X124422849Y-67773681D01*
X114451210Y-67773681D01*
X114509159Y-67686955D01*
X114613977Y-67160000D01*
X114509159Y-66633045D01*
X114210663Y-66186314D01*
X113767198Y-65890000D01*
X114210663Y-65593686D01*
X114509159Y-65146955D01*
X114613977Y-64620000D01*
X114574927Y-64423681D01*
X117252849Y-64423681D01*
X117386082Y-64746131D01*
X117632571Y-64993051D01*
X117954789Y-65126847D01*
X118303681Y-65127151D01*
X118626131Y-64993918D01*
X118771621Y-64848681D01*
X132547849Y-64848681D01*
X132681082Y-65171131D01*
X132927571Y-65418051D01*
X133249789Y-65551847D01*
X133598681Y-65552151D01*
X133921131Y-65418918D01*
X134168051Y-65172429D01*
X134301847Y-64850211D01*
X134302087Y-64573681D01*
X135122849Y-64573681D01*
X135256082Y-64896131D01*
X135502571Y-65143051D01*
X135824789Y-65276847D01*
X136173681Y-65277151D01*
X136496131Y-65143918D01*
X136743051Y-64897429D01*
X136835958Y-64673681D01*
X148622849Y-64673681D01*
X148756082Y-64996131D01*
X149002571Y-65243051D01*
X149324789Y-65376847D01*
X149673681Y-65377151D01*
X149996131Y-65243918D01*
X150243051Y-64997429D01*
X150376847Y-64675211D01*
X150377151Y-64326319D01*
X150243918Y-64003869D01*
X149997429Y-63756949D01*
X149675211Y-63623153D01*
X149326319Y-63622849D01*
X149003869Y-63756082D01*
X148756949Y-64002571D01*
X148623153Y-64324789D01*
X148622849Y-64673681D01*
X136835958Y-64673681D01*
X136876847Y-64575211D01*
X136877151Y-64226319D01*
X136743918Y-63903869D01*
X136497429Y-63656949D01*
X136175211Y-63523153D01*
X135826319Y-63522849D01*
X135503869Y-63656082D01*
X135256949Y-63902571D01*
X135123153Y-64224789D01*
X135122849Y-64573681D01*
X134302087Y-64573681D01*
X134302151Y-64501319D01*
X134168918Y-64178869D01*
X133922429Y-63931949D01*
X133600211Y-63798153D01*
X133251319Y-63797849D01*
X132928869Y-63931082D01*
X132681949Y-64177571D01*
X132548153Y-64499789D01*
X132547849Y-64848681D01*
X118771621Y-64848681D01*
X118873051Y-64747429D01*
X119006847Y-64425211D01*
X119007151Y-64076319D01*
X118873918Y-63753869D01*
X118627429Y-63506949D01*
X118305211Y-63373153D01*
X117956319Y-63372849D01*
X117633869Y-63506082D01*
X117386949Y-63752571D01*
X117253153Y-64074789D01*
X117252849Y-64423681D01*
X114574927Y-64423681D01*
X114509159Y-64093045D01*
X114210663Y-63646314D01*
X113767198Y-63350000D01*
X114210663Y-63053686D01*
X114509159Y-62606955D01*
X114613977Y-62080000D01*
X114509159Y-61553045D01*
X114210663Y-61106314D01*
X113763932Y-60807818D01*
X113236977Y-60703000D01*
X113183023Y-60703000D01*
X112656068Y-60807818D01*
X112209337Y-61106314D01*
X112057324Y-61333818D01*
X112057324Y-61230000D01*
X112020577Y-61034706D01*
X111905158Y-60855340D01*
X111729049Y-60735010D01*
X111520000Y-60692676D01*
X109820000Y-60692676D01*
X109624706Y-60729423D01*
X109445340Y-60844842D01*
X109325010Y-61020951D01*
X109282676Y-61230000D01*
X109282676Y-61333818D01*
X109130663Y-61106314D01*
X108683932Y-60807818D01*
X108156977Y-60703000D01*
X108103023Y-60703000D01*
X107576068Y-60807818D01*
X107129337Y-61106314D01*
X106977324Y-61333818D01*
X106977324Y-61230000D01*
X106940577Y-61034706D01*
X106825158Y-60855340D01*
X106649049Y-60735010D01*
X106440000Y-60692676D01*
X104740000Y-60692676D01*
X104544706Y-60729423D01*
X104365340Y-60844842D01*
X104245010Y-61020951D01*
X104202676Y-61230000D01*
X104202676Y-62930000D01*
X104239423Y-63125294D01*
X104354842Y-63304660D01*
X104530951Y-63424990D01*
X104740000Y-63467324D01*
X104857215Y-63467324D01*
X104589337Y-63646314D01*
X104290841Y-64093045D01*
X104186023Y-64620000D01*
X100712000Y-64620000D01*
X100712000Y-58089074D01*
X101962441Y-58089074D01*
X102452687Y-59275561D01*
X103359664Y-60184123D01*
X104545294Y-60676439D01*
X105829074Y-60677559D01*
X107015561Y-60187313D01*
X107029216Y-60173681D01*
X172622849Y-60173681D01*
X172756082Y-60496131D01*
X173002571Y-60743051D01*
X173324789Y-60876847D01*
X173673681Y-60877151D01*
X173996131Y-60743918D01*
X174243051Y-60497429D01*
X174376847Y-60175211D01*
X174377151Y-59826319D01*
X174243918Y-59503869D01*
X173997429Y-59256949D01*
X173675211Y-59123153D01*
X173326319Y-59122849D01*
X173003869Y-59256082D01*
X172756949Y-59502571D01*
X172623153Y-59824789D01*
X172622849Y-60173681D01*
X107029216Y-60173681D01*
X107924123Y-59280336D01*
X108416439Y-58094706D01*
X108417559Y-56810926D01*
X107927313Y-55624439D01*
X107020336Y-54715877D01*
X105834706Y-54223561D01*
X104550926Y-54222441D01*
X103364439Y-54712687D01*
X102455877Y-55619664D01*
X101963561Y-56805294D01*
X101962441Y-58089074D01*
X100712000Y-58089074D01*
X100712000Y-54078750D01*
X141543000Y-54078750D01*
X141543000Y-54774827D01*
X141623231Y-54968522D01*
X141771479Y-55116769D01*
X141965173Y-55197000D01*
X142189269Y-55197000D01*
X141946314Y-55359337D01*
X141647818Y-55806068D01*
X141543000Y-56333023D01*
X141543000Y-56386977D01*
X141647818Y-56913932D01*
X141946314Y-57360663D01*
X142393045Y-57659159D01*
X142920000Y-57763977D01*
X143446955Y-57659159D01*
X143893686Y-57360663D01*
X144190000Y-56917198D01*
X144486314Y-57360663D01*
X144933045Y-57659159D01*
X145460000Y-57763977D01*
X145986955Y-57659159D01*
X146433686Y-57360663D01*
X146730000Y-56917198D01*
X147026314Y-57360663D01*
X147473045Y-57659159D01*
X148000000Y-57763977D01*
X148526955Y-57659159D01*
X148973686Y-57360663D01*
X149270000Y-56917198D01*
X149566314Y-57360663D01*
X150013045Y-57659159D01*
X150540000Y-57763977D01*
X151066955Y-57659159D01*
X151513686Y-57360663D01*
X151810000Y-56917198D01*
X152106314Y-57360663D01*
X152553045Y-57659159D01*
X153080000Y-57763977D01*
X153606955Y-57659159D01*
X154053686Y-57360663D01*
X154352182Y-56913932D01*
X154457000Y-56386977D01*
X154457000Y-56333023D01*
X154352182Y-55806068D01*
X154246628Y-55648094D01*
X187192355Y-55648094D01*
X187758561Y-57018418D01*
X188806068Y-58067754D01*
X190175402Y-58636351D01*
X191658094Y-58637645D01*
X193028418Y-58071439D01*
X194077754Y-57023932D01*
X194646351Y-55654598D01*
X194647645Y-54171906D01*
X194081439Y-52801582D01*
X193033932Y-51752246D01*
X191664598Y-51183649D01*
X190181906Y-51182355D01*
X188811582Y-51748561D01*
X187762246Y-52796068D01*
X187193649Y-54165402D01*
X187192355Y-55648094D01*
X154246628Y-55648094D01*
X154053686Y-55359337D01*
X153650595Y-55090000D01*
X154053686Y-54820663D01*
X154352182Y-54373932D01*
X154457000Y-53846977D01*
X154457000Y-53793023D01*
X154352182Y-53266068D01*
X154053686Y-52819337D01*
X153606955Y-52520841D01*
X153080000Y-52416023D01*
X152553045Y-52520841D01*
X152106314Y-52819337D01*
X151810000Y-53262802D01*
X151513686Y-52819337D01*
X151066955Y-52520841D01*
X150540000Y-52416023D01*
X150013045Y-52520841D01*
X149566314Y-52819337D01*
X149270000Y-53262802D01*
X148973686Y-52819337D01*
X148526955Y-52520841D01*
X148000000Y-52416023D01*
X147473045Y-52520841D01*
X147026314Y-52819337D01*
X146730000Y-53262802D01*
X146433686Y-52819337D01*
X145986955Y-52520841D01*
X145460000Y-52416023D01*
X144933045Y-52520841D01*
X144486314Y-52819337D01*
X144297000Y-53102666D01*
X144297000Y-52865173D01*
X144216769Y-52671478D01*
X144068521Y-52523231D01*
X143874827Y-52443000D01*
X143178750Y-52443000D01*
X143047000Y-52574750D01*
X143047000Y-53693000D01*
X143067000Y-53693000D01*
X143067000Y-53947000D01*
X143047000Y-53947000D01*
X143047000Y-53967000D01*
X142793000Y-53967000D01*
X142793000Y-53947000D01*
X141674750Y-53947000D01*
X141543000Y-54078750D01*
X100712000Y-54078750D01*
X100712000Y-52865173D01*
X141543000Y-52865173D01*
X141543000Y-53561250D01*
X141674750Y-53693000D01*
X142793000Y-53693000D01*
X142793000Y-52574750D01*
X142661250Y-52443000D01*
X141965173Y-52443000D01*
X141771479Y-52523231D01*
X141623231Y-52671478D01*
X141543000Y-52865173D01*
X100712000Y-52865173D01*
X100712000Y-50432000D01*
X195398000Y-50432000D01*
X195398000Y-139398000D01*
X195398000Y-139398000D01*
G37*
X195398000Y-139398000D02*
X100712000Y-139398000D01*
X100712000Y-135658094D01*
X187192355Y-135658094D01*
X187758561Y-137028418D01*
X188806068Y-138077754D01*
X190175402Y-138646351D01*
X191658094Y-138647645D01*
X193028418Y-138081439D01*
X194077754Y-137033932D01*
X194646351Y-135664598D01*
X194647645Y-134181906D01*
X194081439Y-132811582D01*
X193033932Y-131762246D01*
X191664598Y-131193649D01*
X190181906Y-131192355D01*
X188811582Y-131758561D01*
X187762246Y-132806068D01*
X187193649Y-134175402D01*
X187192355Y-135658094D01*
X100712000Y-135658094D01*
X100712000Y-131848094D01*
X101462355Y-131848094D01*
X102028561Y-133218418D01*
X103076068Y-134267754D01*
X104445402Y-134836351D01*
X105928094Y-134837645D01*
X107298418Y-134271439D01*
X108347754Y-133223932D01*
X108916351Y-131854598D01*
X108916377Y-131823681D01*
X175172849Y-131823681D01*
X175306082Y-132146131D01*
X175552571Y-132393051D01*
X175874789Y-132526847D01*
X176223681Y-132527151D01*
X176546131Y-132393918D01*
X176793051Y-132147429D01*
X176926847Y-131825211D01*
X176927151Y-131476319D01*
X176793918Y-131153869D01*
X176547429Y-130906949D01*
X176225211Y-130773153D01*
X175876319Y-130772849D01*
X175553869Y-130906082D01*
X175306949Y-131152571D01*
X175173153Y-131474789D01*
X175172849Y-131823681D01*
X108916377Y-131823681D01*
X108917645Y-130371906D01*
X108351439Y-129001582D01*
X107303932Y-127952246D01*
X105934598Y-127383649D01*
X104451906Y-127382355D01*
X103081582Y-127948561D01*
X102032246Y-128996068D01*
X101463649Y-130365402D01*
X101462355Y-131848094D01*
X100712000Y-131848094D01*
X100712000Y-64620000D01*
X104186023Y-64620000D01*
X104290841Y-65146955D01*
X104589337Y-65593686D01*
X105032802Y-65890000D01*
X104589337Y-66186314D01*
X104290841Y-66633045D01*
X104186023Y-67160000D01*
X104290841Y-67686955D01*
X104589337Y-68133686D01*
X105032802Y-68430000D01*
X104589337Y-68726314D01*
X104290841Y-69173045D01*
X104186023Y-69700000D01*
X104290841Y-70226955D01*
X104589337Y-70673686D01*
X105032802Y-70970000D01*
X104589337Y-71266314D01*
X104290841Y-71713045D01*
X104186023Y-72240000D01*
X104290841Y-72766955D01*
X104589337Y-73213686D01*
X105032802Y-73510000D01*
X104589337Y-73806314D01*
X104290841Y-74253045D01*
X104186023Y-74780000D01*
X104290841Y-75306955D01*
X104589337Y-75753686D01*
X105032802Y-76050000D01*
X104589337Y-76346314D01*
X104290841Y-76793045D01*
X104186023Y-77320000D01*
X104290841Y-77846955D01*
X104589337Y-78293686D01*
X105032802Y-78590000D01*
X104589337Y-78886314D01*
X104290841Y-79333045D01*
X104186023Y-79860000D01*
X104290841Y-80386955D01*
X104589337Y-80833686D01*
X105032802Y-81130000D01*
X104589337Y-81426314D01*
X104290841Y-81873045D01*
X104186023Y-82400000D01*
X104290841Y-82926955D01*
X104589337Y-83373686D01*
X105032802Y-83670000D01*
X104589337Y-83966314D01*
X104290841Y-84413045D01*
X104186023Y-84940000D01*
X104290841Y-85466955D01*
X104589337Y-85913686D01*
X105032802Y-86210000D01*
X104589337Y-86506314D01*
X104290841Y-86953045D01*
X104186023Y-87480000D01*
X104290841Y-88006955D01*
X104589337Y-88453686D01*
X105032802Y-88750000D01*
X104589337Y-89046314D01*
X104290841Y-89493045D01*
X104186023Y-90020000D01*
X104290841Y-90546955D01*
X104589337Y-90993686D01*
X105032802Y-91290000D01*
X104589337Y-91586314D01*
X104290841Y-92033045D01*
X104186023Y-92560000D01*
X104290841Y-93086955D01*
X104589337Y-93533686D01*
X105036068Y-93832182D01*
X105088804Y-93842672D01*
X104765296Y-93997267D01*
X104406075Y-94396808D01*
X104255617Y-94760071D01*
X104351243Y-94973000D01*
X105463000Y-94973000D01*
X105463000Y-94953000D01*
X105717000Y-94953000D01*
X105717000Y-94973000D01*
X106828757Y-94973000D01*
X106860000Y-94903432D01*
X106891243Y-94973000D01*
X108003000Y-94973000D01*
X108003000Y-94953000D01*
X108257000Y-94953000D01*
X108257000Y-94973000D01*
X108277000Y-94973000D01*
X108277000Y-95227000D01*
X108257000Y-95227000D01*
X108257000Y-95247000D01*
X108003000Y-95247000D01*
X108003000Y-95227000D01*
X106891243Y-95227000D01*
X106860000Y-95296568D01*
X106828757Y-95227000D01*
X105717000Y-95227000D01*
X105717000Y-95247000D01*
X105463000Y-95247000D01*
X105463000Y-95227000D01*
X104351243Y-95227000D01*
X104255617Y-95439929D01*
X104406075Y-95803192D01*
X104765296Y-96202733D01*
X105088804Y-96357328D01*
X105036068Y-96367818D01*
X104589337Y-96666314D01*
X104290841Y-97113045D01*
X104186023Y-97640000D01*
X104290841Y-98166955D01*
X104589337Y-98613686D01*
X105032802Y-98910000D01*
X104589337Y-99206314D01*
X104290841Y-99653045D01*
X104186023Y-100180000D01*
X104290841Y-100706955D01*
X104589337Y-101153686D01*
X105032802Y-101450000D01*
X104589337Y-101746314D01*
X104290841Y-102193045D01*
X104186023Y-102720000D01*
X104290841Y-103246955D01*
X104589337Y-103693686D01*
X105032802Y-103990000D01*
X104589337Y-104286314D01*
X104290841Y-104733045D01*
X104186023Y-105260000D01*
X104290841Y-105786955D01*
X104589337Y-106233686D01*
X105032802Y-106530000D01*
X104589337Y-106826314D01*
X104290841Y-107273045D01*
X104186023Y-107800000D01*
X104290841Y-108326955D01*
X104589337Y-108773686D01*
X105032802Y-109070000D01*
X104589337Y-109366314D01*
X104290841Y-109813045D01*
X104186023Y-110340000D01*
X104290841Y-110866955D01*
X104589337Y-111313686D01*
X105032802Y-111610000D01*
X104589337Y-111906314D01*
X104290841Y-112353045D01*
X104186023Y-112880000D01*
X104290841Y-113406955D01*
X104589337Y-113853686D01*
X105032802Y-114150000D01*
X104589337Y-114446314D01*
X104290841Y-114893045D01*
X104186023Y-115420000D01*
X104290841Y-115946955D01*
X104589337Y-116393686D01*
X105032802Y-116690000D01*
X104589337Y-116986314D01*
X104290841Y-117433045D01*
X104186023Y-117960000D01*
X104290841Y-118486955D01*
X104589337Y-118933686D01*
X105032802Y-119230000D01*
X104589337Y-119526314D01*
X104290841Y-119973045D01*
X104186023Y-120500000D01*
X104290841Y-121026955D01*
X104589337Y-121473686D01*
X105032802Y-121770000D01*
X104589337Y-122066314D01*
X104290841Y-122513045D01*
X104186023Y-123040000D01*
X104290841Y-123566955D01*
X104589337Y-124013686D01*
X105032802Y-124310000D01*
X104589337Y-124606314D01*
X104290841Y-125053045D01*
X104186023Y-125580000D01*
X104290841Y-126106955D01*
X104589337Y-126553686D01*
X105036068Y-126852182D01*
X105563023Y-126957000D01*
X105616977Y-126957000D01*
X106143932Y-126852182D01*
X106590663Y-126553686D01*
X106860000Y-126150595D01*
X107129337Y-126553686D01*
X107576068Y-126852182D01*
X108103023Y-126957000D01*
X108156977Y-126957000D01*
X108683932Y-126852182D01*
X109130663Y-126553686D01*
X109400000Y-126150595D01*
X109669337Y-126553686D01*
X110116068Y-126852182D01*
X110643023Y-126957000D01*
X110696977Y-126957000D01*
X111223932Y-126852182D01*
X111670663Y-126553686D01*
X111940000Y-126150595D01*
X112209337Y-126553686D01*
X112656068Y-126852182D01*
X113183023Y-126957000D01*
X113236977Y-126957000D01*
X113763932Y-126852182D01*
X114210663Y-126553686D01*
X114407732Y-126258750D01*
X184683000Y-126258750D01*
X184683000Y-126954827D01*
X184763231Y-127148521D01*
X184911478Y-127296769D01*
X185105173Y-127377000D01*
X185801250Y-127377000D01*
X185933000Y-127245250D01*
X185933000Y-126127000D01*
X186187000Y-126127000D01*
X186187000Y-127245250D01*
X186318750Y-127377000D01*
X187014827Y-127377000D01*
X187208522Y-127296769D01*
X187356769Y-127148521D01*
X187437000Y-126954827D01*
X187437000Y-126726466D01*
X187775296Y-127102733D01*
X188260070Y-127334393D01*
X188473000Y-127239391D01*
X188473000Y-126127000D01*
X188727000Y-126127000D01*
X188727000Y-127239391D01*
X188939930Y-127334393D01*
X189424704Y-127102733D01*
X189783925Y-126703192D01*
X189934383Y-126339929D01*
X189838757Y-126127000D01*
X188727000Y-126127000D01*
X188473000Y-126127000D01*
X187361243Y-126127000D01*
X187343890Y-126165640D01*
X187305250Y-126127000D01*
X186187000Y-126127000D01*
X185933000Y-126127000D01*
X184814750Y-126127000D01*
X184683000Y-126258750D01*
X114407732Y-126258750D01*
X114509159Y-126106955D01*
X114613977Y-125580000D01*
X114509159Y-125053045D01*
X114210663Y-124606314D01*
X113767198Y-124310000D01*
X114210663Y-124013686D01*
X114509159Y-123566955D01*
X114613977Y-123040000D01*
X114509159Y-122513045D01*
X114210663Y-122066314D01*
X113767198Y-121770000D01*
X114210663Y-121473686D01*
X114509159Y-121026955D01*
X114530433Y-120920000D01*
X184656023Y-120920000D01*
X184760841Y-121446955D01*
X185059337Y-121893686D01*
X185502802Y-122190000D01*
X185059337Y-122486314D01*
X184760841Y-122933045D01*
X184656023Y-123460000D01*
X184760841Y-123986955D01*
X185059337Y-124433686D01*
X185342666Y-124623000D01*
X185105173Y-124623000D01*
X184911478Y-124703231D01*
X184763231Y-124851479D01*
X184683000Y-125045173D01*
X184683000Y-125741250D01*
X184814750Y-125873000D01*
X185933000Y-125873000D01*
X185933000Y-125853000D01*
X186187000Y-125853000D01*
X186187000Y-125873000D01*
X187305250Y-125873000D01*
X187343890Y-125834360D01*
X187361243Y-125873000D01*
X188473000Y-125873000D01*
X188473000Y-125853000D01*
X188727000Y-125853000D01*
X188727000Y-125873000D01*
X189838757Y-125873000D01*
X189934383Y-125660071D01*
X189783925Y-125296808D01*
X189424704Y-124897267D01*
X189101196Y-124742672D01*
X189153932Y-124732182D01*
X189600663Y-124433686D01*
X189899159Y-123986955D01*
X190003977Y-123460000D01*
X189899159Y-122933045D01*
X189600663Y-122486314D01*
X189157198Y-122190000D01*
X189600663Y-121893686D01*
X189899159Y-121446955D01*
X190003977Y-120920000D01*
X189899159Y-120393045D01*
X189600663Y-119946314D01*
X189153932Y-119647818D01*
X188626977Y-119543000D01*
X188573023Y-119543000D01*
X188046068Y-119647818D01*
X187599337Y-119946314D01*
X187330000Y-120349405D01*
X187060663Y-119946314D01*
X186613932Y-119647818D01*
X186086977Y-119543000D01*
X186033023Y-119543000D01*
X185506068Y-119647818D01*
X185059337Y-119946314D01*
X184760841Y-120393045D01*
X184656023Y-120920000D01*
X114530433Y-120920000D01*
X114613977Y-120500000D01*
X114509159Y-119973045D01*
X114242313Y-119573681D01*
X140722849Y-119573681D01*
X140856082Y-119896131D01*
X141102571Y-120143051D01*
X141424789Y-120276847D01*
X141773681Y-120277151D01*
X142096131Y-120143918D01*
X142343051Y-119897429D01*
X142476847Y-119575211D01*
X142476935Y-119473681D01*
X143422849Y-119473681D01*
X143556082Y-119796131D01*
X143802571Y-120043051D01*
X144124789Y-120176847D01*
X144473681Y-120177151D01*
X144796131Y-120043918D01*
X145043051Y-119797429D01*
X145176847Y-119475211D01*
X145177151Y-119126319D01*
X145043918Y-118803869D01*
X144797429Y-118556949D01*
X144475211Y-118423153D01*
X144126319Y-118422849D01*
X143803869Y-118556082D01*
X143556949Y-118802571D01*
X143423153Y-119124789D01*
X143422849Y-119473681D01*
X142476935Y-119473681D01*
X142477151Y-119226319D01*
X142343918Y-118903869D01*
X142097429Y-118656949D01*
X141775211Y-118523153D01*
X141426319Y-118522849D01*
X141103869Y-118656082D01*
X140856949Y-118902571D01*
X140723153Y-119224789D01*
X140722849Y-119573681D01*
X114242313Y-119573681D01*
X114210663Y-119526314D01*
X113767198Y-119230000D01*
X114210663Y-118933686D01*
X114509159Y-118486955D01*
X114613977Y-117960000D01*
X114509159Y-117433045D01*
X114210663Y-116986314D01*
X113767198Y-116690000D01*
X114210663Y-116393686D01*
X114509159Y-115946955D01*
X114613977Y-115420000D01*
X114530172Y-114998681D01*
X151397849Y-114998681D01*
X151531082Y-115321131D01*
X151777571Y-115568051D01*
X152099789Y-115701847D01*
X152448681Y-115702151D01*
X152771131Y-115568918D01*
X153018051Y-115322429D01*
X153151847Y-115000211D01*
X153152151Y-114651319D01*
X153018918Y-114328869D01*
X152772429Y-114081949D01*
X152450211Y-113948153D01*
X152101319Y-113947849D01*
X151778869Y-114081082D01*
X151531949Y-114327571D01*
X151398153Y-114649789D01*
X151397849Y-114998681D01*
X114530172Y-114998681D01*
X114509159Y-114893045D01*
X114210663Y-114446314D01*
X113767198Y-114150000D01*
X114210663Y-113853686D01*
X114330938Y-113673681D01*
X153722849Y-113673681D01*
X153856082Y-113996131D01*
X154102571Y-114243051D01*
X154424789Y-114376847D01*
X154773681Y-114377151D01*
X155096131Y-114243918D01*
X155343051Y-113997429D01*
X155476847Y-113675211D01*
X155477151Y-113326319D01*
X155414083Y-113173681D01*
X161222849Y-113173681D01*
X161356082Y-113496131D01*
X161602571Y-113743051D01*
X161924789Y-113876847D01*
X162273681Y-113877151D01*
X162596131Y-113743918D01*
X162843051Y-113497429D01*
X162976847Y-113175211D01*
X162977151Y-112826319D01*
X162843918Y-112503869D01*
X162597429Y-112256949D01*
X162275211Y-112123153D01*
X161926319Y-112122849D01*
X161603869Y-112256082D01*
X161356949Y-112502571D01*
X161223153Y-112824789D01*
X161222849Y-113173681D01*
X155414083Y-113173681D01*
X155343918Y-113003869D01*
X155097429Y-112756949D01*
X154775211Y-112623153D01*
X154426319Y-112622849D01*
X154103869Y-112756082D01*
X153856949Y-113002571D01*
X153723153Y-113324789D01*
X153722849Y-113673681D01*
X114330938Y-113673681D01*
X114509159Y-113406955D01*
X114613977Y-112880000D01*
X114533156Y-112473681D01*
X137122849Y-112473681D01*
X137256082Y-112796131D01*
X137502571Y-113043051D01*
X137824789Y-113176847D01*
X138173681Y-113177151D01*
X138496131Y-113043918D01*
X138666665Y-112873681D01*
X145822849Y-112873681D01*
X145956082Y-113196131D01*
X146202571Y-113443051D01*
X146524789Y-113576847D01*
X146873681Y-113577151D01*
X147196131Y-113443918D01*
X147443051Y-113197429D01*
X147576847Y-112875211D01*
X147577151Y-112526319D01*
X147443918Y-112203869D01*
X147264045Y-112023681D01*
X151272849Y-112023681D01*
X151406082Y-112346131D01*
X151652571Y-112593051D01*
X151974789Y-112726847D01*
X152323681Y-112727151D01*
X152646131Y-112593918D01*
X152893051Y-112347429D01*
X153026847Y-112025211D01*
X153027151Y-111676319D01*
X152893918Y-111353869D01*
X152647429Y-111106949D01*
X152325211Y-110973153D01*
X151976319Y-110972849D01*
X151653869Y-111106082D01*
X151406949Y-111352571D01*
X151273153Y-111674789D01*
X151272849Y-112023681D01*
X147264045Y-112023681D01*
X147197429Y-111956949D01*
X146875211Y-111823153D01*
X146526319Y-111822849D01*
X146203869Y-111956082D01*
X145956949Y-112202571D01*
X145823153Y-112524789D01*
X145822849Y-112873681D01*
X138666665Y-112873681D01*
X138743051Y-112797429D01*
X138876847Y-112475211D01*
X138877151Y-112126319D01*
X138743918Y-111803869D01*
X138497429Y-111556949D01*
X138175211Y-111423153D01*
X137826319Y-111422849D01*
X137503869Y-111556082D01*
X137256949Y-111802571D01*
X137123153Y-112124789D01*
X137122849Y-112473681D01*
X114533156Y-112473681D01*
X114509159Y-112353045D01*
X114210663Y-111906314D01*
X113767198Y-111610000D01*
X114210663Y-111313686D01*
X114471255Y-110923681D01*
X154022849Y-110923681D01*
X154156082Y-111246131D01*
X154402571Y-111493051D01*
X154724789Y-111626847D01*
X155073681Y-111627151D01*
X155396131Y-111493918D01*
X155643051Y-111247429D01*
X155776847Y-110925211D01*
X155777151Y-110576319D01*
X155643918Y-110253869D01*
X155397429Y-110006949D01*
X155075211Y-109873153D01*
X154726319Y-109872849D01*
X154403869Y-110006082D01*
X154156949Y-110252571D01*
X154023153Y-110574789D01*
X154022849Y-110923681D01*
X114471255Y-110923681D01*
X114509159Y-110866955D01*
X114613977Y-110340000D01*
X114509159Y-109813045D01*
X114282404Y-109473681D01*
X130422849Y-109473681D01*
X130556082Y-109796131D01*
X130802571Y-110043051D01*
X131124789Y-110176847D01*
X131473681Y-110177151D01*
X131796131Y-110043918D01*
X131966665Y-109873681D01*
X151922849Y-109873681D01*
X152056082Y-110196131D01*
X152302571Y-110443051D01*
X152624789Y-110576847D01*
X152973681Y-110577151D01*
X153296131Y-110443918D01*
X153543051Y-110197429D01*
X153676847Y-109875211D01*
X153677151Y-109526319D01*
X153543918Y-109203869D01*
X153297429Y-108956949D01*
X153277518Y-108948681D01*
X182322849Y-108948681D01*
X182456082Y-109271131D01*
X182702571Y-109518051D01*
X183024789Y-109651847D01*
X183373681Y-109652151D01*
X183696131Y-109518918D01*
X183943051Y-109272429D01*
X184076847Y-108950211D01*
X184076925Y-108860000D01*
X184696023Y-108860000D01*
X184800841Y-109386955D01*
X185099337Y-109833686D01*
X185542802Y-110130000D01*
X185099337Y-110426314D01*
X184800841Y-110873045D01*
X184696023Y-111400000D01*
X184800841Y-111926955D01*
X185099337Y-112373686D01*
X185367215Y-112552676D01*
X185250000Y-112552676D01*
X185054706Y-112589423D01*
X184875340Y-112704842D01*
X184755010Y-112880951D01*
X184712676Y-113090000D01*
X184712676Y-114790000D01*
X184749423Y-114985294D01*
X184864842Y-115164660D01*
X185040951Y-115284990D01*
X185250000Y-115327324D01*
X186950000Y-115327324D01*
X187145294Y-115290577D01*
X187324660Y-115175158D01*
X187444990Y-114999049D01*
X187487324Y-114790000D01*
X187487324Y-114677948D01*
X187815296Y-115042733D01*
X188300070Y-115274393D01*
X188513000Y-115179391D01*
X188513000Y-114067000D01*
X188767000Y-114067000D01*
X188767000Y-115179391D01*
X188979930Y-115274393D01*
X189464704Y-115042733D01*
X189823925Y-114643192D01*
X189974383Y-114279929D01*
X189878757Y-114067000D01*
X188767000Y-114067000D01*
X188513000Y-114067000D01*
X188493000Y-114067000D01*
X188493000Y-113813000D01*
X188513000Y-113813000D01*
X188513000Y-113793000D01*
X188767000Y-113793000D01*
X188767000Y-113813000D01*
X189878757Y-113813000D01*
X189974383Y-113600071D01*
X189823925Y-113236808D01*
X189464704Y-112837267D01*
X189141196Y-112682672D01*
X189193932Y-112672182D01*
X189640663Y-112373686D01*
X189939159Y-111926955D01*
X190043977Y-111400000D01*
X189939159Y-110873045D01*
X189640663Y-110426314D01*
X189197198Y-110130000D01*
X189640663Y-109833686D01*
X189939159Y-109386955D01*
X190043977Y-108860000D01*
X189939159Y-108333045D01*
X189640663Y-107886314D01*
X189193932Y-107587818D01*
X188666977Y-107483000D01*
X188613023Y-107483000D01*
X188086068Y-107587818D01*
X187639337Y-107886314D01*
X187370000Y-108289405D01*
X187100663Y-107886314D01*
X186653932Y-107587818D01*
X186126977Y-107483000D01*
X186073023Y-107483000D01*
X185546068Y-107587818D01*
X185099337Y-107886314D01*
X184800841Y-108333045D01*
X184696023Y-108860000D01*
X184076925Y-108860000D01*
X184077151Y-108601319D01*
X183943918Y-108278869D01*
X183697429Y-108031949D01*
X183375211Y-107898153D01*
X183026319Y-107897849D01*
X182703869Y-108031082D01*
X182456949Y-108277571D01*
X182323153Y-108599789D01*
X182322849Y-108948681D01*
X153277518Y-108948681D01*
X152975211Y-108823153D01*
X152626319Y-108822849D01*
X152303869Y-108956082D01*
X152056949Y-109202571D01*
X151923153Y-109524789D01*
X151922849Y-109873681D01*
X131966665Y-109873681D01*
X132043051Y-109797429D01*
X132176847Y-109475211D01*
X132177151Y-109126319D01*
X132093424Y-108923681D01*
X144072849Y-108923681D01*
X144206082Y-109246131D01*
X144452571Y-109493051D01*
X144774789Y-109626847D01*
X145123681Y-109627151D01*
X145446131Y-109493918D01*
X145693051Y-109247429D01*
X145826847Y-108925211D01*
X145827151Y-108576319D01*
X145693918Y-108253869D01*
X145447429Y-108006949D01*
X145125211Y-107873153D01*
X144776319Y-107872849D01*
X144453869Y-108006082D01*
X144206949Y-108252571D01*
X144073153Y-108574789D01*
X144072849Y-108923681D01*
X132093424Y-108923681D01*
X132043918Y-108803869D01*
X131797429Y-108556949D01*
X131475211Y-108423153D01*
X131126319Y-108422849D01*
X130803869Y-108556082D01*
X130556949Y-108802571D01*
X130423153Y-109124789D01*
X130422849Y-109473681D01*
X114282404Y-109473681D01*
X114210663Y-109366314D01*
X113767198Y-109070000D01*
X114210663Y-108773686D01*
X114509159Y-108326955D01*
X114613977Y-107800000D01*
X114509159Y-107273045D01*
X114442767Y-107173681D01*
X125222849Y-107173681D01*
X125356082Y-107496131D01*
X125602571Y-107743051D01*
X125924789Y-107876847D01*
X126273681Y-107877151D01*
X126596131Y-107743918D01*
X126843051Y-107497429D01*
X126894435Y-107373681D01*
X148097849Y-107373681D01*
X148231082Y-107696131D01*
X148477571Y-107943051D01*
X148799789Y-108076847D01*
X149148681Y-108077151D01*
X149471131Y-107943918D01*
X149718051Y-107697429D01*
X149851847Y-107375211D01*
X149852151Y-107026319D01*
X149718918Y-106703869D01*
X149472429Y-106456949D01*
X149150211Y-106323153D01*
X148801319Y-106322849D01*
X148478869Y-106456082D01*
X148231949Y-106702571D01*
X148098153Y-107024789D01*
X148097849Y-107373681D01*
X126894435Y-107373681D01*
X126976847Y-107175211D01*
X126977151Y-106826319D01*
X126843918Y-106503869D01*
X126597429Y-106256949D01*
X126275211Y-106123153D01*
X125926319Y-106122849D01*
X125603869Y-106256082D01*
X125356949Y-106502571D01*
X125223153Y-106824789D01*
X125222849Y-107173681D01*
X114442767Y-107173681D01*
X114210663Y-106826314D01*
X113767198Y-106530000D01*
X114210663Y-106233686D01*
X114509159Y-105786955D01*
X114531690Y-105673681D01*
X135022849Y-105673681D01*
X135156082Y-105996131D01*
X135402571Y-106243051D01*
X135724789Y-106376847D01*
X136073681Y-106377151D01*
X136396131Y-106243918D01*
X136491534Y-106148681D01*
X144747849Y-106148681D01*
X144881082Y-106471131D01*
X145127571Y-106718051D01*
X145449789Y-106851847D01*
X145798681Y-106852151D01*
X146121131Y-106718918D01*
X146368051Y-106472429D01*
X146501847Y-106150211D01*
X146502151Y-105801319D01*
X146368918Y-105478869D01*
X146122429Y-105231949D01*
X145800211Y-105098153D01*
X145451319Y-105097849D01*
X145128869Y-105231082D01*
X144881949Y-105477571D01*
X144748153Y-105799789D01*
X144747849Y-106148681D01*
X136491534Y-106148681D01*
X136643051Y-105997429D01*
X136776847Y-105675211D01*
X136777151Y-105326319D01*
X136643918Y-105003869D01*
X136397429Y-104756949D01*
X136196897Y-104673681D01*
X143547849Y-104673681D01*
X143681082Y-104996131D01*
X143927571Y-105243051D01*
X144249789Y-105376847D01*
X144598681Y-105377151D01*
X144921131Y-105243918D01*
X145168051Y-104997429D01*
X145281720Y-104723681D01*
X148422849Y-104723681D01*
X148556082Y-105046131D01*
X148802571Y-105293051D01*
X149124789Y-105426847D01*
X149473681Y-105427151D01*
X149796131Y-105293918D01*
X150043051Y-105047429D01*
X150176847Y-104725211D01*
X150176891Y-104673681D01*
X153772849Y-104673681D01*
X153906082Y-104996131D01*
X154152571Y-105243051D01*
X154474789Y-105376847D01*
X154823681Y-105377151D01*
X155146131Y-105243918D01*
X155393051Y-104997429D01*
X155526847Y-104675211D01*
X155527151Y-104326319D01*
X155393918Y-104003869D01*
X155147429Y-103756949D01*
X154825211Y-103623153D01*
X154476319Y-103622849D01*
X154153869Y-103756082D01*
X153906949Y-104002571D01*
X153773153Y-104324789D01*
X153772849Y-104673681D01*
X150176891Y-104673681D01*
X150177151Y-104376319D01*
X150043918Y-104053869D01*
X149797429Y-103806949D01*
X149475211Y-103673153D01*
X149126319Y-103672849D01*
X148803869Y-103806082D01*
X148556949Y-104052571D01*
X148423153Y-104374789D01*
X148422849Y-104723681D01*
X145281720Y-104723681D01*
X145301847Y-104675211D01*
X145302151Y-104326319D01*
X145168918Y-104003869D01*
X144922429Y-103756949D01*
X144600211Y-103623153D01*
X144251319Y-103622849D01*
X143928869Y-103756082D01*
X143681949Y-104002571D01*
X143548153Y-104324789D01*
X143547849Y-104673681D01*
X136196897Y-104673681D01*
X136075211Y-104623153D01*
X135726319Y-104622849D01*
X135403869Y-104756082D01*
X135156949Y-105002571D01*
X135023153Y-105324789D01*
X135022849Y-105673681D01*
X114531690Y-105673681D01*
X114613977Y-105260000D01*
X114509159Y-104733045D01*
X114210663Y-104286314D01*
X113767198Y-103990000D01*
X114210663Y-103693686D01*
X114509159Y-103246955D01*
X114603299Y-102773681D01*
X154622849Y-102773681D01*
X154756082Y-103096131D01*
X155002571Y-103343051D01*
X155324789Y-103476847D01*
X155673681Y-103477151D01*
X155996131Y-103343918D01*
X156243051Y-103097429D01*
X156376847Y-102775211D01*
X156377000Y-102598681D01*
X180872849Y-102598681D01*
X181006082Y-102921131D01*
X181252571Y-103168051D01*
X181574789Y-103301847D01*
X181923681Y-103302151D01*
X182246131Y-103168918D01*
X182493051Y-102922429D01*
X182626847Y-102600211D01*
X182627151Y-102251319D01*
X182493918Y-101928869D01*
X182247429Y-101681949D01*
X181925211Y-101548153D01*
X181576319Y-101547849D01*
X181253869Y-101681082D01*
X181006949Y-101927571D01*
X180873153Y-102249789D01*
X180872849Y-102598681D01*
X156377000Y-102598681D01*
X156377151Y-102426319D01*
X156243918Y-102103869D01*
X155997429Y-101856949D01*
X155796897Y-101773681D01*
X164422849Y-101773681D01*
X164556082Y-102096131D01*
X164802571Y-102343051D01*
X165124789Y-102476847D01*
X165473681Y-102477151D01*
X165796131Y-102343918D01*
X166043051Y-102097429D01*
X166176847Y-101775211D01*
X166177151Y-101426319D01*
X166043918Y-101103869D01*
X165797429Y-100856949D01*
X165475211Y-100723153D01*
X165126319Y-100722849D01*
X164803869Y-100856082D01*
X164556949Y-101102571D01*
X164423153Y-101424789D01*
X164422849Y-101773681D01*
X155796897Y-101773681D01*
X155675211Y-101723153D01*
X155326319Y-101722849D01*
X155003869Y-101856082D01*
X154756949Y-102102571D01*
X154623153Y-102424789D01*
X154622849Y-102773681D01*
X114603299Y-102773681D01*
X114613977Y-102720000D01*
X114509159Y-102193045D01*
X114210663Y-101746314D01*
X113767198Y-101450000D01*
X114210663Y-101153686D01*
X114509159Y-100706955D01*
X114555560Y-100473681D01*
X127347849Y-100473681D01*
X127481082Y-100796131D01*
X127727571Y-101043051D01*
X128049789Y-101176847D01*
X128398681Y-101177151D01*
X128721131Y-101043918D01*
X128968051Y-100797429D01*
X129029816Y-100648681D01*
X158197849Y-100648681D01*
X158331082Y-100971131D01*
X158577571Y-101218051D01*
X158899789Y-101351847D01*
X159248681Y-101352151D01*
X159571131Y-101218918D01*
X159818051Y-100972429D01*
X159951847Y-100650211D01*
X159952151Y-100301319D01*
X159818918Y-99978869D01*
X159572429Y-99731949D01*
X159250211Y-99598153D01*
X158901319Y-99597849D01*
X158578869Y-99731082D01*
X158331949Y-99977571D01*
X158198153Y-100299789D01*
X158197849Y-100648681D01*
X129029816Y-100648681D01*
X129101847Y-100475211D01*
X129102151Y-100126319D01*
X128968918Y-99803869D01*
X128913827Y-99748681D01*
X141047849Y-99748681D01*
X141181082Y-100071131D01*
X141427571Y-100318051D01*
X141749789Y-100451847D01*
X142098681Y-100452151D01*
X142421131Y-100318918D01*
X142668051Y-100072429D01*
X142801847Y-99750211D01*
X142802151Y-99401319D01*
X142668918Y-99078869D01*
X142489045Y-98898681D01*
X150522849Y-98898681D01*
X150656082Y-99221131D01*
X150902571Y-99468051D01*
X151224789Y-99601847D01*
X151573681Y-99602151D01*
X151896131Y-99468918D01*
X152143051Y-99222429D01*
X152163292Y-99173681D01*
X164422849Y-99173681D01*
X164556082Y-99496131D01*
X164802571Y-99743051D01*
X165124789Y-99876847D01*
X165473681Y-99877151D01*
X165796131Y-99743918D01*
X166043051Y-99497429D01*
X166176847Y-99175211D01*
X166177151Y-98826319D01*
X166043918Y-98503869D01*
X165988827Y-98448681D01*
X174647849Y-98448681D01*
X174781082Y-98771131D01*
X175027571Y-99018051D01*
X175349789Y-99151847D01*
X175698681Y-99152151D01*
X176021131Y-99018918D01*
X176268051Y-98772429D01*
X176401847Y-98450211D01*
X176402151Y-98101319D01*
X176268918Y-97778869D01*
X176022429Y-97531949D01*
X175700211Y-97398153D01*
X175351319Y-97397849D01*
X175028869Y-97531082D01*
X174781949Y-97777571D01*
X174648153Y-98099789D01*
X174647849Y-98448681D01*
X165988827Y-98448681D01*
X165797429Y-98256949D01*
X165475211Y-98123153D01*
X165126319Y-98122849D01*
X164803869Y-98256082D01*
X164556949Y-98502571D01*
X164423153Y-98824789D01*
X164422849Y-99173681D01*
X152163292Y-99173681D01*
X152276847Y-98900211D01*
X152277151Y-98551319D01*
X152143918Y-98228869D01*
X151897429Y-97981949D01*
X151575211Y-97848153D01*
X151226319Y-97847849D01*
X150903869Y-97981082D01*
X150656949Y-98227571D01*
X150523153Y-98549789D01*
X150522849Y-98898681D01*
X142489045Y-98898681D01*
X142422429Y-98831949D01*
X142100211Y-98698153D01*
X141751319Y-98697849D01*
X141428869Y-98831082D01*
X141181949Y-99077571D01*
X141048153Y-99399789D01*
X141047849Y-99748681D01*
X128913827Y-99748681D01*
X128722429Y-99556949D01*
X128400211Y-99423153D01*
X128051319Y-99422849D01*
X127728869Y-99556082D01*
X127481949Y-99802571D01*
X127348153Y-100124789D01*
X127347849Y-100473681D01*
X114555560Y-100473681D01*
X114613977Y-100180000D01*
X114509159Y-99653045D01*
X114210663Y-99206314D01*
X113767198Y-98910000D01*
X114210663Y-98613686D01*
X114509159Y-98166955D01*
X114613977Y-97640000D01*
X114509159Y-97113045D01*
X114210663Y-96666314D01*
X113767198Y-96370000D01*
X114210663Y-96073686D01*
X114509159Y-95626955D01*
X114613977Y-95100000D01*
X114509159Y-94573045D01*
X114210663Y-94126314D01*
X113767198Y-93830000D01*
X114210663Y-93533686D01*
X114509159Y-93086955D01*
X114613977Y-92560000D01*
X114509159Y-92033045D01*
X114210663Y-91586314D01*
X113780191Y-91298681D01*
X146572849Y-91298681D01*
X146706082Y-91621131D01*
X146952571Y-91868051D01*
X147274789Y-92001847D01*
X147623681Y-92002151D01*
X147946131Y-91868918D01*
X148193051Y-91622429D01*
X148326847Y-91300211D01*
X148327151Y-90951319D01*
X148193918Y-90628869D01*
X147947429Y-90381949D01*
X147625211Y-90248153D01*
X147276319Y-90247849D01*
X146953869Y-90381082D01*
X146706949Y-90627571D01*
X146573153Y-90949789D01*
X146572849Y-91298681D01*
X113780191Y-91298681D01*
X113767198Y-91290000D01*
X114210663Y-90993686D01*
X114509159Y-90546955D01*
X114553571Y-90323681D01*
X138622849Y-90323681D01*
X138756082Y-90646131D01*
X139002571Y-90893051D01*
X139324789Y-91026847D01*
X139673681Y-91027151D01*
X139996131Y-90893918D01*
X140243051Y-90647429D01*
X140376847Y-90325211D01*
X140377151Y-89976319D01*
X140265369Y-89705783D01*
X140302571Y-89743051D01*
X140624789Y-89876847D01*
X140973681Y-89877151D01*
X141296131Y-89743918D01*
X141543051Y-89497429D01*
X141548759Y-89483681D01*
X145542849Y-89483681D01*
X145676082Y-89806131D01*
X145922571Y-90053051D01*
X146244789Y-90186847D01*
X146593681Y-90187151D01*
X146916131Y-90053918D01*
X147163051Y-89807429D01*
X147296847Y-89485211D01*
X147297151Y-89136319D01*
X147163918Y-88813869D01*
X146917429Y-88566949D01*
X146595211Y-88433153D01*
X146246319Y-88432849D01*
X145923869Y-88566082D01*
X145676949Y-88812571D01*
X145543153Y-89134789D01*
X145542849Y-89483681D01*
X141548759Y-89483681D01*
X141676847Y-89175211D01*
X141677151Y-88826319D01*
X141543918Y-88503869D01*
X141297429Y-88256949D01*
X140975211Y-88123153D01*
X140626319Y-88122849D01*
X140303869Y-88256082D01*
X140056949Y-88502571D01*
X139923153Y-88824789D01*
X139922849Y-89173681D01*
X140034631Y-89444217D01*
X139997429Y-89406949D01*
X139675211Y-89273153D01*
X139326319Y-89272849D01*
X139003869Y-89406082D01*
X138756949Y-89652571D01*
X138623153Y-89974789D01*
X138622849Y-90323681D01*
X114553571Y-90323681D01*
X114613977Y-90020000D01*
X114509159Y-89493045D01*
X114210663Y-89046314D01*
X113767198Y-88750000D01*
X114210663Y-88453686D01*
X114509159Y-88006955D01*
X114613977Y-87480000D01*
X114592829Y-87373681D01*
X142097849Y-87373681D01*
X142231082Y-87696131D01*
X142477571Y-87943051D01*
X142799789Y-88076847D01*
X143148681Y-88077151D01*
X143253886Y-88033681D01*
X149842849Y-88033681D01*
X149976082Y-88356131D01*
X150222571Y-88603051D01*
X150544789Y-88736847D01*
X150893681Y-88737151D01*
X151216131Y-88603918D01*
X151463051Y-88357429D01*
X151596847Y-88035211D01*
X151597151Y-87686319D01*
X151591930Y-87673681D01*
X173522849Y-87673681D01*
X173656082Y-87996131D01*
X173902571Y-88243051D01*
X174224789Y-88376847D01*
X174573681Y-88377151D01*
X174896131Y-88243918D01*
X175143051Y-87997429D01*
X175276847Y-87675211D01*
X175277151Y-87326319D01*
X175143918Y-87003869D01*
X174897429Y-86756949D01*
X174575211Y-86623153D01*
X174226319Y-86622849D01*
X173903869Y-86756082D01*
X173656949Y-87002571D01*
X173523153Y-87324789D01*
X173522849Y-87673681D01*
X151591930Y-87673681D01*
X151463918Y-87363869D01*
X151217429Y-87116949D01*
X150895211Y-86983153D01*
X150546319Y-86982849D01*
X150223869Y-87116082D01*
X149976949Y-87362571D01*
X149843153Y-87684789D01*
X149842849Y-88033681D01*
X143253886Y-88033681D01*
X143471131Y-87943918D01*
X143718051Y-87697429D01*
X143851847Y-87375211D01*
X143852151Y-87026319D01*
X143718918Y-86703869D01*
X143472429Y-86456949D01*
X143150211Y-86323153D01*
X142801319Y-86322849D01*
X142478869Y-86456082D01*
X142231949Y-86702571D01*
X142098153Y-87024789D01*
X142097849Y-87373681D01*
X114592829Y-87373681D01*
X114509159Y-86953045D01*
X114210663Y-86506314D01*
X113767198Y-86210000D01*
X113784138Y-86198681D01*
X152772849Y-86198681D01*
X152906082Y-86521131D01*
X153152571Y-86768051D01*
X153474789Y-86901847D01*
X153823681Y-86902151D01*
X154146131Y-86768918D01*
X154393051Y-86522429D01*
X154475578Y-86323681D01*
X156822849Y-86323681D01*
X156956082Y-86646131D01*
X157202571Y-86893051D01*
X157524789Y-87026847D01*
X157873681Y-87027151D01*
X158196131Y-86893918D01*
X158443051Y-86647429D01*
X158576847Y-86325211D01*
X158577151Y-85976319D01*
X158443918Y-85653869D01*
X158197429Y-85406949D01*
X157875211Y-85273153D01*
X157526319Y-85272849D01*
X157203869Y-85406082D01*
X156956949Y-85652571D01*
X156823153Y-85974789D01*
X156822849Y-86323681D01*
X154475578Y-86323681D01*
X154526847Y-86200211D01*
X154527151Y-85851319D01*
X154393918Y-85528869D01*
X154147429Y-85281949D01*
X153825211Y-85148153D01*
X153476319Y-85147849D01*
X153153869Y-85281082D01*
X152906949Y-85527571D01*
X152773153Y-85849789D01*
X152772849Y-86198681D01*
X113784138Y-86198681D01*
X114210663Y-85913686D01*
X114509159Y-85466955D01*
X114613977Y-84940000D01*
X114509159Y-84413045D01*
X114210663Y-83966314D01*
X113767198Y-83670000D01*
X114210663Y-83373686D01*
X114344302Y-83173681D01*
X156822849Y-83173681D01*
X156956082Y-83496131D01*
X157202571Y-83743051D01*
X157524789Y-83876847D01*
X157873681Y-83877151D01*
X158196131Y-83743918D01*
X158443051Y-83497429D01*
X158576847Y-83175211D01*
X158577151Y-82826319D01*
X158443918Y-82503869D01*
X158197429Y-82256949D01*
X157875211Y-82123153D01*
X157526319Y-82122849D01*
X157203869Y-82256082D01*
X156956949Y-82502571D01*
X156823153Y-82824789D01*
X156822849Y-83173681D01*
X114344302Y-83173681D01*
X114509159Y-82926955D01*
X114613977Y-82400000D01*
X114509159Y-81873045D01*
X114210663Y-81426314D01*
X113767198Y-81130000D01*
X114210663Y-80833686D01*
X114509159Y-80386955D01*
X114521744Y-80323681D01*
X157872849Y-80323681D01*
X158006082Y-80646131D01*
X158252571Y-80893051D01*
X158574789Y-81026847D01*
X158923681Y-81027151D01*
X159246131Y-80893918D01*
X159493051Y-80647429D01*
X159626847Y-80325211D01*
X159627151Y-79976319D01*
X159493918Y-79653869D01*
X159247429Y-79406949D01*
X158925211Y-79273153D01*
X158576319Y-79272849D01*
X158253869Y-79406082D01*
X158006949Y-79652571D01*
X157873153Y-79974789D01*
X157872849Y-80323681D01*
X114521744Y-80323681D01*
X114613977Y-79860000D01*
X114509159Y-79333045D01*
X114502903Y-79323681D01*
X122522849Y-79323681D01*
X122656082Y-79646131D01*
X122902571Y-79893051D01*
X123224789Y-80026847D01*
X123573681Y-80027151D01*
X123896131Y-79893918D01*
X124143051Y-79647429D01*
X124276847Y-79325211D01*
X124277151Y-78976319D01*
X124143918Y-78653869D01*
X123897429Y-78406949D01*
X123817311Y-78373681D01*
X141122849Y-78373681D01*
X141256082Y-78696131D01*
X141502571Y-78943051D01*
X141824789Y-79076847D01*
X142173681Y-79077151D01*
X142496131Y-78943918D01*
X142743051Y-78697429D01*
X142876847Y-78375211D01*
X142876935Y-78273681D01*
X173622849Y-78273681D01*
X173756082Y-78596131D01*
X174002571Y-78843051D01*
X174324789Y-78976847D01*
X174673681Y-78977151D01*
X174996131Y-78843918D01*
X175243051Y-78597429D01*
X175376847Y-78275211D01*
X175377151Y-77926319D01*
X175243918Y-77603869D01*
X174997429Y-77356949D01*
X174675211Y-77223153D01*
X174326319Y-77222849D01*
X174003869Y-77356082D01*
X173756949Y-77602571D01*
X173623153Y-77924789D01*
X173622849Y-78273681D01*
X142876935Y-78273681D01*
X142877151Y-78026319D01*
X142743918Y-77703869D01*
X142497429Y-77456949D01*
X142175211Y-77323153D01*
X141826319Y-77322849D01*
X141503869Y-77456082D01*
X141256949Y-77702571D01*
X141123153Y-78024789D01*
X141122849Y-78373681D01*
X123817311Y-78373681D01*
X123575211Y-78273153D01*
X123226319Y-78272849D01*
X122903869Y-78406082D01*
X122656949Y-78652571D01*
X122523153Y-78974789D01*
X122522849Y-79323681D01*
X114502903Y-79323681D01*
X114210663Y-78886314D01*
X113767198Y-78590000D01*
X114210663Y-78293686D01*
X114509159Y-77846955D01*
X114613977Y-77320000D01*
X114509159Y-76793045D01*
X114362585Y-76573681D01*
X129822849Y-76573681D01*
X129956082Y-76896131D01*
X130202571Y-77143051D01*
X130524789Y-77276847D01*
X130873681Y-77277151D01*
X131196131Y-77143918D01*
X131443051Y-76897429D01*
X131576847Y-76575211D01*
X131576848Y-76573681D01*
X133522849Y-76573681D01*
X133656082Y-76896131D01*
X133902571Y-77143051D01*
X134224789Y-77276847D01*
X134573681Y-77277151D01*
X134896131Y-77143918D01*
X135143051Y-76897429D01*
X135276847Y-76575211D01*
X135277151Y-76226319D01*
X135255402Y-76173681D01*
X160122849Y-76173681D01*
X160256082Y-76496131D01*
X160502571Y-76743051D01*
X160824789Y-76876847D01*
X161173681Y-76877151D01*
X161496131Y-76743918D01*
X161743051Y-76497429D01*
X161876847Y-76175211D01*
X161877151Y-75826319D01*
X161743918Y-75503869D01*
X161497429Y-75256949D01*
X161175211Y-75123153D01*
X160826319Y-75122849D01*
X160503869Y-75256082D01*
X160256949Y-75502571D01*
X160123153Y-75824789D01*
X160122849Y-76173681D01*
X135255402Y-76173681D01*
X135143918Y-75903869D01*
X134897429Y-75656949D01*
X134575211Y-75523153D01*
X134226319Y-75522849D01*
X133903869Y-75656082D01*
X133656949Y-75902571D01*
X133523153Y-76224789D01*
X133522849Y-76573681D01*
X131576848Y-76573681D01*
X131577151Y-76226319D01*
X131443918Y-75903869D01*
X131197429Y-75656949D01*
X130875211Y-75523153D01*
X130526319Y-75522849D01*
X130203869Y-75656082D01*
X129956949Y-75902571D01*
X129823153Y-76224789D01*
X129822849Y-76573681D01*
X114362585Y-76573681D01*
X114210663Y-76346314D01*
X113767198Y-76050000D01*
X114210663Y-75753686D01*
X114509159Y-75306955D01*
X114555560Y-75073681D01*
X118422849Y-75073681D01*
X118556082Y-75396131D01*
X118802571Y-75643051D01*
X119124789Y-75776847D01*
X119473681Y-75777151D01*
X119796131Y-75643918D01*
X120043051Y-75397429D01*
X120176847Y-75075211D01*
X120177151Y-74726319D01*
X120043918Y-74403869D01*
X120013783Y-74373681D01*
X160122849Y-74373681D01*
X160256082Y-74696131D01*
X160502571Y-74943051D01*
X160824789Y-75076847D01*
X161173681Y-75077151D01*
X161496131Y-74943918D01*
X161743051Y-74697429D01*
X161876847Y-74375211D01*
X161877151Y-74026319D01*
X161743918Y-73703869D01*
X161497429Y-73456949D01*
X161175211Y-73323153D01*
X160826319Y-73322849D01*
X160503869Y-73456082D01*
X160256949Y-73702571D01*
X160123153Y-74024789D01*
X160122849Y-74373681D01*
X120013783Y-74373681D01*
X119797429Y-74156949D01*
X119475211Y-74023153D01*
X119126319Y-74022849D01*
X118803869Y-74156082D01*
X118556949Y-74402571D01*
X118423153Y-74724789D01*
X118422849Y-75073681D01*
X114555560Y-75073681D01*
X114613977Y-74780000D01*
X114509159Y-74253045D01*
X114210663Y-73806314D01*
X113767198Y-73510000D01*
X114210663Y-73213686D01*
X114509159Y-72766955D01*
X114613977Y-72240000D01*
X114509159Y-71713045D01*
X114349222Y-71473681D01*
X137672849Y-71473681D01*
X137806082Y-71796131D01*
X138052571Y-72043051D01*
X138374789Y-72176847D01*
X138723681Y-72177151D01*
X139046131Y-72043918D01*
X139293051Y-71797429D01*
X139426847Y-71475211D01*
X139427151Y-71126319D01*
X139293918Y-70803869D01*
X139047429Y-70556949D01*
X138725211Y-70423153D01*
X138376319Y-70422849D01*
X138053869Y-70556082D01*
X137806949Y-70802571D01*
X137673153Y-71124789D01*
X137672849Y-71473681D01*
X114349222Y-71473681D01*
X114210663Y-71266314D01*
X113767198Y-70970000D01*
X114210663Y-70673686D01*
X114509159Y-70226955D01*
X114613977Y-69700000D01*
X114509159Y-69173045D01*
X114476176Y-69123681D01*
X122472849Y-69123681D01*
X122606082Y-69446131D01*
X122852571Y-69693051D01*
X123174789Y-69826847D01*
X123523681Y-69827151D01*
X123846131Y-69693918D01*
X124093051Y-69447429D01*
X124206720Y-69173681D01*
X134222849Y-69173681D01*
X134356082Y-69496131D01*
X134602571Y-69743051D01*
X134924789Y-69876847D01*
X135273681Y-69877151D01*
X135596131Y-69743918D01*
X135843051Y-69497429D01*
X135976847Y-69175211D01*
X135977151Y-68826319D01*
X135843918Y-68503869D01*
X135597429Y-68256949D01*
X135275211Y-68123153D01*
X134926319Y-68122849D01*
X134603869Y-68256082D01*
X134356949Y-68502571D01*
X134223153Y-68824789D01*
X134222849Y-69173681D01*
X124206720Y-69173681D01*
X124226847Y-69125211D01*
X124227151Y-68776319D01*
X124093918Y-68453869D01*
X123847429Y-68206949D01*
X123525211Y-68073153D01*
X123176319Y-68072849D01*
X122853869Y-68206082D01*
X122606949Y-68452571D01*
X122473153Y-68774789D01*
X122472849Y-69123681D01*
X114476176Y-69123681D01*
X114210663Y-68726314D01*
X113767198Y-68430000D01*
X114210663Y-68133686D01*
X114451210Y-67773681D01*
X124422849Y-67773681D01*
X124556082Y-68096131D01*
X124802571Y-68343051D01*
X125124789Y-68476847D01*
X125473681Y-68477151D01*
X125796131Y-68343918D01*
X126043051Y-68097429D01*
X126176847Y-67775211D01*
X126177151Y-67426319D01*
X126043918Y-67103869D01*
X125797429Y-66856949D01*
X125475211Y-66723153D01*
X125126319Y-66722849D01*
X124803869Y-66856082D01*
X124556949Y-67102571D01*
X124423153Y-67424789D01*
X124422849Y-67773681D01*
X114451210Y-67773681D01*
X114509159Y-67686955D01*
X114613977Y-67160000D01*
X114509159Y-66633045D01*
X114210663Y-66186314D01*
X113767198Y-65890000D01*
X114210663Y-65593686D01*
X114509159Y-65146955D01*
X114613977Y-64620000D01*
X114574927Y-64423681D01*
X117252849Y-64423681D01*
X117386082Y-64746131D01*
X117632571Y-64993051D01*
X117954789Y-65126847D01*
X118303681Y-65127151D01*
X118626131Y-64993918D01*
X118771621Y-64848681D01*
X132547849Y-64848681D01*
X132681082Y-65171131D01*
X132927571Y-65418051D01*
X133249789Y-65551847D01*
X133598681Y-65552151D01*
X133921131Y-65418918D01*
X134168051Y-65172429D01*
X134301847Y-64850211D01*
X134302087Y-64573681D01*
X135122849Y-64573681D01*
X135256082Y-64896131D01*
X135502571Y-65143051D01*
X135824789Y-65276847D01*
X136173681Y-65277151D01*
X136496131Y-65143918D01*
X136743051Y-64897429D01*
X136835958Y-64673681D01*
X148622849Y-64673681D01*
X148756082Y-64996131D01*
X149002571Y-65243051D01*
X149324789Y-65376847D01*
X149673681Y-65377151D01*
X149996131Y-65243918D01*
X150243051Y-64997429D01*
X150376847Y-64675211D01*
X150377151Y-64326319D01*
X150243918Y-64003869D01*
X149997429Y-63756949D01*
X149675211Y-63623153D01*
X149326319Y-63622849D01*
X149003869Y-63756082D01*
X148756949Y-64002571D01*
X148623153Y-64324789D01*
X148622849Y-64673681D01*
X136835958Y-64673681D01*
X136876847Y-64575211D01*
X136877151Y-64226319D01*
X136743918Y-63903869D01*
X136497429Y-63656949D01*
X136175211Y-63523153D01*
X135826319Y-63522849D01*
X135503869Y-63656082D01*
X135256949Y-63902571D01*
X135123153Y-64224789D01*
X135122849Y-64573681D01*
X134302087Y-64573681D01*
X134302151Y-64501319D01*
X134168918Y-64178869D01*
X133922429Y-63931949D01*
X133600211Y-63798153D01*
X133251319Y-63797849D01*
X132928869Y-63931082D01*
X132681949Y-64177571D01*
X132548153Y-64499789D01*
X132547849Y-64848681D01*
X118771621Y-64848681D01*
X118873051Y-64747429D01*
X119006847Y-64425211D01*
X119007151Y-64076319D01*
X118873918Y-63753869D01*
X118627429Y-63506949D01*
X118305211Y-63373153D01*
X117956319Y-63372849D01*
X117633869Y-63506082D01*
X117386949Y-63752571D01*
X117253153Y-64074789D01*
X117252849Y-64423681D01*
X114574927Y-64423681D01*
X114509159Y-64093045D01*
X114210663Y-63646314D01*
X113767198Y-63350000D01*
X114210663Y-63053686D01*
X114509159Y-62606955D01*
X114613977Y-62080000D01*
X114509159Y-61553045D01*
X114210663Y-61106314D01*
X113763932Y-60807818D01*
X113236977Y-60703000D01*
X113183023Y-60703000D01*
X112656068Y-60807818D01*
X112209337Y-61106314D01*
X112057324Y-61333818D01*
X112057324Y-61230000D01*
X112020577Y-61034706D01*
X111905158Y-60855340D01*
X111729049Y-60735010D01*
X111520000Y-60692676D01*
X109820000Y-60692676D01*
X109624706Y-60729423D01*
X109445340Y-60844842D01*
X109325010Y-61020951D01*
X109282676Y-61230000D01*
X109282676Y-61333818D01*
X109130663Y-61106314D01*
X108683932Y-60807818D01*
X108156977Y-60703000D01*
X108103023Y-60703000D01*
X107576068Y-60807818D01*
X107129337Y-61106314D01*
X106977324Y-61333818D01*
X106977324Y-61230000D01*
X106940577Y-61034706D01*
X106825158Y-60855340D01*
X106649049Y-60735010D01*
X106440000Y-60692676D01*
X104740000Y-60692676D01*
X104544706Y-60729423D01*
X104365340Y-60844842D01*
X104245010Y-61020951D01*
X104202676Y-61230000D01*
X104202676Y-62930000D01*
X104239423Y-63125294D01*
X104354842Y-63304660D01*
X104530951Y-63424990D01*
X104740000Y-63467324D01*
X104857215Y-63467324D01*
X104589337Y-63646314D01*
X104290841Y-64093045D01*
X104186023Y-64620000D01*
X100712000Y-64620000D01*
X100712000Y-58089074D01*
X101962441Y-58089074D01*
X102452687Y-59275561D01*
X103359664Y-60184123D01*
X104545294Y-60676439D01*
X105829074Y-60677559D01*
X107015561Y-60187313D01*
X107029216Y-60173681D01*
X172622849Y-60173681D01*
X172756082Y-60496131D01*
X173002571Y-60743051D01*
X173324789Y-60876847D01*
X173673681Y-60877151D01*
X173996131Y-60743918D01*
X174243051Y-60497429D01*
X174376847Y-60175211D01*
X174377151Y-59826319D01*
X174243918Y-59503869D01*
X173997429Y-59256949D01*
X173675211Y-59123153D01*
X173326319Y-59122849D01*
X173003869Y-59256082D01*
X172756949Y-59502571D01*
X172623153Y-59824789D01*
X172622849Y-60173681D01*
X107029216Y-60173681D01*
X107924123Y-59280336D01*
X108416439Y-58094706D01*
X108417559Y-56810926D01*
X107927313Y-55624439D01*
X107020336Y-54715877D01*
X105834706Y-54223561D01*
X104550926Y-54222441D01*
X103364439Y-54712687D01*
X102455877Y-55619664D01*
X101963561Y-56805294D01*
X101962441Y-58089074D01*
X100712000Y-58089074D01*
X100712000Y-54078750D01*
X141543000Y-54078750D01*
X141543000Y-54774827D01*
X141623231Y-54968522D01*
X141771479Y-55116769D01*
X141965173Y-55197000D01*
X142189269Y-55197000D01*
X141946314Y-55359337D01*
X141647818Y-55806068D01*
X141543000Y-56333023D01*
X141543000Y-56386977D01*
X141647818Y-56913932D01*
X141946314Y-57360663D01*
X142393045Y-57659159D01*
X142920000Y-57763977D01*
X143446955Y-57659159D01*
X143893686Y-57360663D01*
X144190000Y-56917198D01*
X144486314Y-57360663D01*
X144933045Y-57659159D01*
X145460000Y-57763977D01*
X145986955Y-57659159D01*
X146433686Y-57360663D01*
X146730000Y-56917198D01*
X147026314Y-57360663D01*
X147473045Y-57659159D01*
X148000000Y-57763977D01*
X148526955Y-57659159D01*
X148973686Y-57360663D01*
X149270000Y-56917198D01*
X149566314Y-57360663D01*
X150013045Y-57659159D01*
X150540000Y-57763977D01*
X151066955Y-57659159D01*
X151513686Y-57360663D01*
X151810000Y-56917198D01*
X152106314Y-57360663D01*
X152553045Y-57659159D01*
X153080000Y-57763977D01*
X153606955Y-57659159D01*
X154053686Y-57360663D01*
X154352182Y-56913932D01*
X154457000Y-56386977D01*
X154457000Y-56333023D01*
X154352182Y-55806068D01*
X154246628Y-55648094D01*
X187192355Y-55648094D01*
X187758561Y-57018418D01*
X188806068Y-58067754D01*
X190175402Y-58636351D01*
X191658094Y-58637645D01*
X193028418Y-58071439D01*
X194077754Y-57023932D01*
X194646351Y-55654598D01*
X194647645Y-54171906D01*
X194081439Y-52801582D01*
X193033932Y-51752246D01*
X191664598Y-51183649D01*
X190181906Y-51182355D01*
X188811582Y-51748561D01*
X187762246Y-52796068D01*
X187193649Y-54165402D01*
X187192355Y-55648094D01*
X154246628Y-55648094D01*
X154053686Y-55359337D01*
X153650595Y-55090000D01*
X154053686Y-54820663D01*
X154352182Y-54373932D01*
X154457000Y-53846977D01*
X154457000Y-53793023D01*
X154352182Y-53266068D01*
X154053686Y-52819337D01*
X153606955Y-52520841D01*
X153080000Y-52416023D01*
X152553045Y-52520841D01*
X152106314Y-52819337D01*
X151810000Y-53262802D01*
X151513686Y-52819337D01*
X151066955Y-52520841D01*
X150540000Y-52416023D01*
X150013045Y-52520841D01*
X149566314Y-52819337D01*
X149270000Y-53262802D01*
X148973686Y-52819337D01*
X148526955Y-52520841D01*
X148000000Y-52416023D01*
X147473045Y-52520841D01*
X147026314Y-52819337D01*
X146730000Y-53262802D01*
X146433686Y-52819337D01*
X145986955Y-52520841D01*
X145460000Y-52416023D01*
X144933045Y-52520841D01*
X144486314Y-52819337D01*
X144297000Y-53102666D01*
X144297000Y-52865173D01*
X144216769Y-52671478D01*
X144068521Y-52523231D01*
X143874827Y-52443000D01*
X143178750Y-52443000D01*
X143047000Y-52574750D01*
X143047000Y-53693000D01*
X143067000Y-53693000D01*
X143067000Y-53947000D01*
X143047000Y-53947000D01*
X143047000Y-53967000D01*
X142793000Y-53967000D01*
X142793000Y-53947000D01*
X141674750Y-53947000D01*
X141543000Y-54078750D01*
X100712000Y-54078750D01*
X100712000Y-52865173D01*
X141543000Y-52865173D01*
X141543000Y-53561250D01*
X141674750Y-53693000D01*
X142793000Y-53693000D01*
X142793000Y-52574750D01*
X142661250Y-52443000D01*
X141965173Y-52443000D01*
X141771479Y-52523231D01*
X141623231Y-52671478D01*
X141543000Y-52865173D01*
X100712000Y-52865173D01*
X100712000Y-50432000D01*
X195398000Y-50432000D01*
X195398000Y-139398000D01*
M02*
