G04 #@! TF.FileFunction,Copper,L1,Top,Signal*
%FSLAX46Y46*%
G04 Gerber Fmt 4.6, Leading zero omitted, Abs format (unit mm)*
G04 Created by KiCad (PCBNEW 4.0.7) date 02/17/18 20:59:13*
%MOMM*%
%LPD*%
G01*
G04 APERTURE LIST*
%ADD10C,0.100000*%
%ADD11R,1.700000X1.700000*%
%ADD12O,1.700000X1.700000*%
%ADD13C,6.400000*%
%ADD14C,5.400000*%
%ADD15C,0.700000*%
%ADD16C,0.250000*%
G04 APERTURE END LIST*
D10*
D11*
X110670000Y-62080000D03*
D12*
X113210000Y-62080000D03*
X110670000Y-64620000D03*
X113210000Y-64620000D03*
X110670000Y-67160000D03*
X113210000Y-67160000D03*
X110670000Y-69700000D03*
X113210000Y-69700000D03*
X110670000Y-72240000D03*
X113210000Y-72240000D03*
X110670000Y-74780000D03*
X113210000Y-74780000D03*
X110670000Y-77320000D03*
X113210000Y-77320000D03*
X110670000Y-79860000D03*
X113210000Y-79860000D03*
X110670000Y-82400000D03*
X113210000Y-82400000D03*
X110670000Y-84940000D03*
X113210000Y-84940000D03*
X110670000Y-87480000D03*
X113210000Y-87480000D03*
X110670000Y-90020000D03*
X113210000Y-90020000D03*
X110670000Y-92560000D03*
X113210000Y-92560000D03*
X110670000Y-95100000D03*
X113210000Y-95100000D03*
X110670000Y-97640000D03*
X113210000Y-97640000D03*
X110670000Y-100180000D03*
X113210000Y-100180000D03*
X110670000Y-102720000D03*
X113210000Y-102720000D03*
X110670000Y-105260000D03*
X113210000Y-105260000D03*
X110670000Y-107800000D03*
X113210000Y-107800000D03*
X110670000Y-110340000D03*
X113210000Y-110340000D03*
X110670000Y-112880000D03*
X113210000Y-112880000D03*
X110670000Y-115420000D03*
X113210000Y-115420000D03*
X110670000Y-117960000D03*
X113210000Y-117960000D03*
X110670000Y-120500000D03*
X113210000Y-120500000D03*
X110670000Y-123040000D03*
X113210000Y-123040000D03*
X110670000Y-125580000D03*
X113210000Y-125580000D03*
D11*
X105590000Y-62080000D03*
D12*
X108130000Y-62080000D03*
X105590000Y-64620000D03*
X108130000Y-64620000D03*
X105590000Y-67160000D03*
X108130000Y-67160000D03*
X105590000Y-69700000D03*
X108130000Y-69700000D03*
X105590000Y-72240000D03*
X108130000Y-72240000D03*
X105590000Y-74780000D03*
X108130000Y-74780000D03*
X105590000Y-77320000D03*
X108130000Y-77320000D03*
X105590000Y-79860000D03*
X108130000Y-79860000D03*
X105590000Y-82400000D03*
X108130000Y-82400000D03*
X105590000Y-84940000D03*
X108130000Y-84940000D03*
X105590000Y-87480000D03*
X108130000Y-87480000D03*
X105590000Y-90020000D03*
X108130000Y-90020000D03*
X105590000Y-92560000D03*
X108130000Y-92560000D03*
X105590000Y-95100000D03*
X108130000Y-95100000D03*
X105590000Y-97640000D03*
X108130000Y-97640000D03*
X105590000Y-100180000D03*
X108130000Y-100180000D03*
X105590000Y-102720000D03*
X108130000Y-102720000D03*
X105590000Y-105260000D03*
X108130000Y-105260000D03*
X105590000Y-107800000D03*
X108130000Y-107800000D03*
X105590000Y-110340000D03*
X108130000Y-110340000D03*
X105590000Y-112880000D03*
X108130000Y-112880000D03*
X105590000Y-115420000D03*
X108130000Y-115420000D03*
X105590000Y-117960000D03*
X108130000Y-117960000D03*
X105590000Y-120500000D03*
X108130000Y-120500000D03*
X105590000Y-123040000D03*
X108130000Y-123040000D03*
X105590000Y-125580000D03*
X108130000Y-125580000D03*
D11*
X142920000Y-53820000D03*
D12*
X142920000Y-56360000D03*
X145460000Y-53820000D03*
X145460000Y-56360000D03*
X148000000Y-53820000D03*
X148000000Y-56360000D03*
X150540000Y-53820000D03*
X150540000Y-56360000D03*
X153080000Y-53820000D03*
X153080000Y-56360000D03*
D11*
X186060000Y-126000000D03*
D12*
X188600000Y-126000000D03*
X186060000Y-123460000D03*
X188600000Y-123460000D03*
X186060000Y-120920000D03*
X188600000Y-120920000D03*
D11*
X186100000Y-113940000D03*
D12*
X188640000Y-113940000D03*
X186100000Y-111400000D03*
X188640000Y-111400000D03*
X186100000Y-108860000D03*
X188640000Y-108860000D03*
D13*
X105190000Y-131110000D03*
D14*
X105190000Y-57450000D03*
D13*
X190920000Y-54910000D03*
X190920000Y-134920000D03*
D15*
X118130000Y-64250000D03*
X152275000Y-114825000D03*
X148975000Y-107200000D03*
X159075000Y-100475000D03*
X133425000Y-64675000D03*
X136000000Y-64400000D03*
X135900000Y-105500000D03*
X131300000Y-109300000D03*
X161000000Y-76000000D03*
X144300000Y-119300000D03*
X165300000Y-101600000D03*
X162100000Y-113000000D03*
X141600000Y-119400000D03*
X154600000Y-113500000D03*
X138000000Y-112300000D03*
X165300000Y-99000000D03*
X174500000Y-78100000D03*
X174400000Y-87500000D03*
X161000000Y-74200000D03*
X173500000Y-60000000D03*
X149500000Y-64500000D03*
X134400000Y-76400000D03*
X119300000Y-74900000D03*
X176050000Y-131650000D03*
X186160000Y-136800000D03*
X160975000Y-101850000D03*
X118800000Y-76800000D03*
X135500000Y-66600000D03*
X118600000Y-66700000D03*
X132500000Y-70000000D03*
X138100000Y-101700000D03*
X135400000Y-108600000D03*
X171300000Y-99000000D03*
X167000000Y-74200000D03*
X183900000Y-60000000D03*
X149500000Y-70200000D03*
X132500000Y-80000000D03*
X158750000Y-80150000D03*
X146420000Y-89310000D03*
X153650000Y-86025000D03*
X154900000Y-110750000D03*
X150720000Y-87860000D03*
X147450000Y-91125000D03*
X157700000Y-83000000D03*
X157700000Y-86150000D03*
X130700000Y-76400000D03*
X142000000Y-78200000D03*
X151400000Y-98725000D03*
X152800000Y-109700000D03*
X135100000Y-69000000D03*
X125300000Y-67600000D03*
X141925000Y-99575000D03*
X181750000Y-102425000D03*
X145625000Y-105975000D03*
X154650000Y-104500000D03*
X126100000Y-107000000D03*
X149300000Y-104550000D03*
X128225000Y-100300000D03*
X144425000Y-104500000D03*
X146700000Y-112700000D03*
X183200000Y-108775000D03*
X155500000Y-102600000D03*
X175525000Y-98275000D03*
X152150000Y-111850000D03*
X144950000Y-108750000D03*
X123400000Y-79150000D03*
X139500000Y-90150000D03*
X140800000Y-89000000D03*
X123350000Y-68950000D03*
X138550000Y-71300000D03*
X142975000Y-87200000D03*
D16*
X156575000Y-80150000D02*
X158750000Y-80150000D01*
X155580000Y-80150000D02*
X156575000Y-80150000D01*
X146420000Y-89310000D02*
X155580000Y-80150000D01*
X153650000Y-107550000D02*
X154900000Y-108800000D01*
X154900000Y-108800000D02*
X154900000Y-110750000D01*
X153650000Y-107550000D02*
X153650000Y-90150000D01*
X153650000Y-90150000D02*
X153650000Y-86025000D01*
X147455000Y-91125000D02*
X147450000Y-91125000D01*
X150720000Y-87860000D02*
X147455000Y-91125000D01*
X157700000Y-86150000D02*
X157700000Y-83000000D01*
X130700000Y-76400000D02*
X132500000Y-78200000D01*
X132500000Y-78200000D02*
X142000000Y-78200000D01*
X152800000Y-99300000D02*
X152225000Y-98725000D01*
X152225000Y-98725000D02*
X151400000Y-98725000D01*
X152800000Y-101100000D02*
X152800000Y-109700000D01*
X152800000Y-101100000D02*
X152800000Y-99300000D01*
X135100000Y-69000000D02*
X133700000Y-67600000D01*
X125300000Y-67600000D02*
X133700000Y-67600000D01*
X141925000Y-99575000D02*
X141900000Y-99600000D01*
X141900000Y-99600000D02*
X131250000Y-99600000D01*
X131250000Y-99600000D02*
X117000000Y-85350000D01*
X117000000Y-85350000D02*
X117000000Y-71300000D01*
X117000000Y-71300000D02*
X116700000Y-71000000D01*
X116700000Y-71000000D02*
X106890000Y-71000000D01*
X106890000Y-71000000D02*
X105590000Y-69700000D01*
X108130000Y-92560000D02*
X105590000Y-92560000D01*
X105590000Y-92560000D02*
X103160000Y-92560000D01*
X103160000Y-92560000D02*
X101400000Y-90800000D01*
X101400000Y-90800000D02*
X101400000Y-55010000D01*
X101400000Y-55010000D02*
X104500000Y-51910000D01*
X104500000Y-51910000D02*
X136470000Y-51910000D01*
X136470000Y-51910000D02*
X140920000Y-56360000D01*
X140920000Y-56360000D02*
X142920000Y-56360000D01*
X186500000Y-53075000D02*
X186500000Y-97675000D01*
X181750000Y-102425000D02*
X186500000Y-97675000D01*
X148000000Y-53820000D02*
X148505000Y-53820000D01*
X148505000Y-53820000D02*
X151000000Y-51325000D01*
X184750000Y-51325000D02*
X186500000Y-53075000D01*
X151000000Y-51325000D02*
X184750000Y-51325000D01*
X144950000Y-90150000D02*
X144950000Y-88600000D01*
X145625000Y-105975000D02*
X145775000Y-105825000D01*
X145775000Y-105825000D02*
X145775000Y-103975000D01*
X145775000Y-103975000D02*
X145400000Y-103600000D01*
X144950000Y-103150000D02*
X145400000Y-103600000D01*
X144950000Y-90150000D02*
X144950000Y-103150000D01*
X154240000Y-60060000D02*
X150540000Y-56360000D01*
X154240000Y-79310000D02*
X154240000Y-60060000D01*
X144950000Y-88600000D02*
X154240000Y-79310000D01*
X188640000Y-111400000D02*
X190600000Y-111400000D01*
X187350000Y-124750000D02*
X186060000Y-123460000D01*
X190000000Y-124750000D02*
X187350000Y-124750000D01*
X190700000Y-124050000D02*
X190000000Y-124750000D01*
X190700000Y-111500000D02*
X190700000Y-124050000D01*
X190600000Y-111400000D02*
X190700000Y-111500000D01*
X187390000Y-110150000D02*
X188640000Y-111400000D01*
X160300000Y-110150000D02*
X187390000Y-110150000D01*
X154650000Y-104500000D02*
X160300000Y-110150000D01*
X146850000Y-107000000D02*
X126100000Y-107000000D01*
X149300000Y-104550000D02*
X146850000Y-107000000D01*
X128225000Y-100300000D02*
X140950000Y-100300000D01*
X140950000Y-100300000D02*
X144425000Y-103775000D01*
X144425000Y-103775000D02*
X144425000Y-104500000D01*
X187390000Y-122250000D02*
X188600000Y-123460000D01*
X181250000Y-122250000D02*
X187390000Y-122250000D01*
X156250000Y-122250000D02*
X181250000Y-122250000D01*
X146700000Y-112700000D02*
X156250000Y-122250000D01*
X187350000Y-116150000D02*
X187350000Y-112525000D01*
X187350000Y-112525000D02*
X186225000Y-111400000D01*
X181250000Y-122250000D02*
X187350000Y-116150000D01*
X186225000Y-111400000D02*
X186100000Y-111400000D01*
X183125000Y-108700000D02*
X160500000Y-108700000D01*
X183200000Y-108775000D02*
X183125000Y-108700000D01*
X155500000Y-102600000D02*
X155900000Y-103000000D01*
X155900000Y-103000000D02*
X158250000Y-103000000D01*
X160500000Y-108700000D02*
X160500000Y-105250000D01*
X158250000Y-103000000D02*
X160500000Y-105250000D01*
X175525000Y-98275000D02*
X186100000Y-108850000D01*
X186100000Y-108850000D02*
X186100000Y-108860000D01*
X149000000Y-108700000D02*
X152150000Y-111850000D01*
X145000000Y-108700000D02*
X149000000Y-108700000D01*
X144950000Y-108750000D02*
X145000000Y-108700000D01*
X125100000Y-80850000D02*
X125100000Y-87300000D01*
X123400000Y-79150000D02*
X125100000Y-80850000D01*
X136650000Y-87300000D02*
X125100000Y-87300000D01*
X139500000Y-90150000D02*
X136650000Y-87300000D01*
X137900000Y-86100000D02*
X125950000Y-86100000D01*
X140800000Y-89000000D02*
X137900000Y-86100000D01*
X125950000Y-86100000D02*
X125950000Y-71550000D01*
X125950000Y-71550000D02*
X123350000Y-68950000D01*
X143100000Y-75850000D02*
X138550000Y-71300000D01*
X144025000Y-76775000D02*
X143100000Y-75850000D01*
X144025000Y-86150000D02*
X144025000Y-76775000D01*
X142975000Y-87200000D02*
X144025000Y-86150000D01*
M02*
