M48
;DRILL file {KiCad 4.0.7} date 02/17/18 20:59:11
;FORMAT={2:4/ absolute / inch / suppress leading zeros}
FMAT,2
INCH,TZ
T1C0.016
T2C0.039
T3C0.126
%
G90
G05
M72
T1
X46508Y-25295
X46693Y-26260
X46772Y-30236
X46969Y-29488
X48563Y-27146
X48583Y-31161
X49331Y-26614
X49646Y-42126
X50482Y-39488
X51457Y-30079
X51693Y-43031
X52165Y-27559
X52165Y-31496
X52530Y-25463
X52913Y-30079
X53189Y-27165
X53307Y-42756
X53346Y-26220
X53504Y-41535
X53543Y-25354
X54331Y-44213
X54370Y-40039
X54547Y-28071
X54921Y-35492
X55433Y-35039
X55748Y-47008
X55876Y-39203
X55906Y-30787
X56289Y-34331
X56811Y-46969
X56860Y-41142
X57067Y-42815
X57333Y-41722
X57646Y-35161
X57756Y-44370
X58051Y-35876
X58652Y-42205
X58780Y-41161
X58858Y-25394
X58858Y-27638
X59339Y-34591
X59606Y-38868
X59902Y-44035
X59951Y-45207
X60157Y-43189
X60492Y-33868
X60866Y-44685
X60886Y-41142
X60984Y-43602
X61220Y-40394
X62087Y-32677
X62087Y-33917
X62500Y-31555
X62628Y-39557
X63376Y-40098
X63386Y-29213
X63386Y-29921
X63819Y-44488
X65079Y-38976
X65079Y-40000
X65748Y-29213
X67441Y-38976
X68307Y-23622
X68661Y-34449
X68701Y-30748
X69104Y-38691
X69311Y-51831
X71555Y-40325
X72126Y-42825
X72402Y-23622
X73291Y-53858
T2
X41571Y-24441
X41571Y-25441
X41571Y-26441
X41571Y-27441
X41571Y-28441
X41571Y-29441
X41571Y-30441
X41571Y-31441
X41571Y-32441
X41571Y-33441
X41571Y-34441
X41571Y-35441
X41571Y-36441
X41571Y-37441
X41571Y-38441
X41571Y-39441
X41571Y-40441
X41571Y-41441
X41571Y-42441
X41571Y-43441
X41571Y-44441
X41571Y-45441
X41571Y-46441
X41571Y-47441
X41571Y-48441
X41571Y-49441
X42571Y-24441
X42571Y-25441
X42571Y-26441
X42571Y-27441
X42571Y-28441
X42571Y-29441
X42571Y-30441
X42571Y-31441
X42571Y-32441
X42571Y-33441
X42571Y-34441
X42571Y-35441
X42571Y-36441
X42571Y-37441
X42571Y-38441
X42571Y-39441
X42571Y-40441
X42571Y-41441
X42571Y-42441
X42571Y-43441
X42571Y-44441
X42571Y-45441
X42571Y-46441
X42571Y-47441
X42571Y-48441
X42571Y-49441
X43571Y-24441
X43571Y-25441
X43571Y-26441
X43571Y-27441
X43571Y-28441
X43571Y-29441
X43571Y-30441
X43571Y-31441
X43571Y-32441
X43571Y-33441
X43571Y-34441
X43571Y-35441
X43571Y-36441
X43571Y-37441
X43571Y-38441
X43571Y-39441
X43571Y-40441
X43571Y-41441
X43571Y-42441
X43571Y-43441
X43571Y-44441
X43571Y-45441
X43571Y-46441
X43571Y-47441
X43571Y-48441
X43571Y-49441
X44571Y-24441
X44571Y-25441
X44571Y-26441
X44571Y-27441
X44571Y-28441
X44571Y-29441
X44571Y-30441
X44571Y-31441
X44571Y-32441
X44571Y-33441
X44571Y-34441
X44571Y-35441
X44571Y-36441
X44571Y-37441
X44571Y-38441
X44571Y-39441
X44571Y-40441
X44571Y-41441
X44571Y-42441
X44571Y-43441
X44571Y-44441
X44571Y-45441
X44571Y-46441
X44571Y-47441
X44571Y-48441
X44571Y-49441
X56268Y-21189
X56268Y-22189
X57268Y-21189
X57268Y-22189
X58268Y-21189
X58268Y-22189
X59268Y-21189
X59268Y-22189
X60268Y-21189
X60268Y-22189
X73252Y-47606
X73252Y-48606
X73252Y-49606
X73268Y-42858
X73268Y-43858
X73268Y-44858
X74252Y-47606
X74252Y-48606
X74252Y-49606
X74268Y-42858
X74268Y-43858
X74268Y-44858
T3
X41413Y-22618
X41413Y-51618
X75165Y-21618
X75165Y-53118
T0
M30
