G04 #@! TF.FileFunction,Soldermask,Bot*
%FSLAX46Y46*%
G04 Gerber Fmt 4.6, Leading zero omitted, Abs format (unit mm)*
G04 Created by KiCad (PCBNEW 4.0.7) date 02/17/18 20:59:13*
%MOMM*%
%LPD*%
G01*
G04 APERTURE LIST*
%ADD10C,0.100000*%
%ADD11R,2.200000X2.200000*%
%ADD12O,2.200000X2.200000*%
%ADD13R,1.250000X1.700000*%
%ADD14R,1.700000X1.250000*%
%ADD15R,1.300000X1.300000*%
%ADD16R,1.100000X2.450000*%
%ADD17R,1.000000X1.400000*%
%ADD18R,1.400000X1.000000*%
%ADD19R,2.050000X1.800000*%
%ADD20R,1.100000X2.050000*%
%ADD21R,2.100000X1.050000*%
%ADD22R,1.050000X2.100000*%
%ADD23R,2.250000X1.050000*%
%ADD24R,2.300000X1.700000*%
G04 APERTURE END LIST*
D10*
D11*
X110670000Y-62080000D03*
D12*
X113210000Y-62080000D03*
X110670000Y-64620000D03*
X113210000Y-64620000D03*
X110670000Y-67160000D03*
X113210000Y-67160000D03*
X110670000Y-69700000D03*
X113210000Y-69700000D03*
X110670000Y-72240000D03*
X113210000Y-72240000D03*
X110670000Y-74780000D03*
X113210000Y-74780000D03*
X110670000Y-77320000D03*
X113210000Y-77320000D03*
X110670000Y-79860000D03*
X113210000Y-79860000D03*
X110670000Y-82400000D03*
X113210000Y-82400000D03*
X110670000Y-84940000D03*
X113210000Y-84940000D03*
X110670000Y-87480000D03*
X113210000Y-87480000D03*
X110670000Y-90020000D03*
X113210000Y-90020000D03*
X110670000Y-92560000D03*
X113210000Y-92560000D03*
X110670000Y-95100000D03*
X113210000Y-95100000D03*
X110670000Y-97640000D03*
X113210000Y-97640000D03*
X110670000Y-100180000D03*
X113210000Y-100180000D03*
X110670000Y-102720000D03*
X113210000Y-102720000D03*
X110670000Y-105260000D03*
X113210000Y-105260000D03*
X110670000Y-107800000D03*
X113210000Y-107800000D03*
X110670000Y-110340000D03*
X113210000Y-110340000D03*
X110670000Y-112880000D03*
X113210000Y-112880000D03*
X110670000Y-115420000D03*
X113210000Y-115420000D03*
X110670000Y-117960000D03*
X113210000Y-117960000D03*
X110670000Y-120500000D03*
X113210000Y-120500000D03*
X110670000Y-123040000D03*
X113210000Y-123040000D03*
X110670000Y-125580000D03*
X113210000Y-125580000D03*
D11*
X105590000Y-62080000D03*
D12*
X108130000Y-62080000D03*
X105590000Y-64620000D03*
X108130000Y-64620000D03*
X105590000Y-67160000D03*
X108130000Y-67160000D03*
X105590000Y-69700000D03*
X108130000Y-69700000D03*
X105590000Y-72240000D03*
X108130000Y-72240000D03*
X105590000Y-74780000D03*
X108130000Y-74780000D03*
X105590000Y-77320000D03*
X108130000Y-77320000D03*
X105590000Y-79860000D03*
X108130000Y-79860000D03*
X105590000Y-82400000D03*
X108130000Y-82400000D03*
X105590000Y-84940000D03*
X108130000Y-84940000D03*
X105590000Y-87480000D03*
X108130000Y-87480000D03*
X105590000Y-90020000D03*
X108130000Y-90020000D03*
X105590000Y-92560000D03*
X108130000Y-92560000D03*
X105590000Y-95100000D03*
X108130000Y-95100000D03*
X105590000Y-97640000D03*
X108130000Y-97640000D03*
X105590000Y-100180000D03*
X108130000Y-100180000D03*
X105590000Y-102720000D03*
X108130000Y-102720000D03*
X105590000Y-105260000D03*
X108130000Y-105260000D03*
X105590000Y-107800000D03*
X108130000Y-107800000D03*
X105590000Y-110340000D03*
X108130000Y-110340000D03*
X105590000Y-112880000D03*
X108130000Y-112880000D03*
X105590000Y-115420000D03*
X108130000Y-115420000D03*
X105590000Y-117960000D03*
X108130000Y-117960000D03*
X105590000Y-120500000D03*
X108130000Y-120500000D03*
X105590000Y-123040000D03*
X108130000Y-123040000D03*
X105590000Y-125580000D03*
X108130000Y-125580000D03*
D13*
X138000000Y-110450000D03*
X138000000Y-108550000D03*
X157750000Y-102775000D03*
X157750000Y-104675000D03*
X138000000Y-105450000D03*
X138000000Y-103550000D03*
D14*
X167550000Y-99000000D03*
X169450000Y-99000000D03*
D13*
X149500000Y-66550000D03*
X149500000Y-68450000D03*
X132500000Y-66550000D03*
X132500000Y-68450000D03*
X132500000Y-76550000D03*
X132500000Y-78450000D03*
X154625000Y-115075000D03*
X154625000Y-116975000D03*
X141625000Y-116975000D03*
X141625000Y-115075000D03*
D14*
X162800000Y-74250000D03*
X164700000Y-74250000D03*
D15*
X176800000Y-60000000D03*
X175200000Y-60000000D03*
D16*
X160535000Y-78050000D03*
X161805000Y-78050000D03*
X163075000Y-78050000D03*
X164345000Y-78050000D03*
X165615000Y-78050000D03*
X166885000Y-78050000D03*
X168155000Y-78050000D03*
X169425000Y-78050000D03*
X170695000Y-78050000D03*
X171965000Y-78050000D03*
X171965000Y-87450000D03*
X170695000Y-87450000D03*
X169425000Y-87450000D03*
X168155000Y-87450000D03*
X166885000Y-87450000D03*
X165615000Y-87450000D03*
X164345000Y-87450000D03*
X163075000Y-87450000D03*
X161805000Y-87450000D03*
X160535000Y-87450000D03*
D17*
X165250000Y-113000000D03*
X163750000Y-113000000D03*
X169250000Y-113000000D03*
X170750000Y-113000000D03*
D18*
X184250000Y-136800000D03*
X184250000Y-135300000D03*
D17*
X123250000Y-101000000D03*
X124750000Y-101000000D03*
X123250000Y-107000000D03*
X124750000Y-107000000D03*
X182250000Y-60000000D03*
X180750000Y-60000000D03*
D19*
X172325000Y-136345554D03*
X180275000Y-136345554D03*
X172325000Y-131845554D03*
X180275000Y-131845554D03*
D20*
X166595000Y-103300000D03*
X167865000Y-103300000D03*
X169135000Y-103300000D03*
X170405000Y-103300000D03*
X170405000Y-108700000D03*
X169135000Y-108700000D03*
X167865000Y-108700000D03*
X166595000Y-108700000D03*
D21*
X151250000Y-103700000D03*
X151250000Y-104500000D03*
X151250000Y-105300000D03*
X151250000Y-106100000D03*
X151250000Y-106900000D03*
X151250000Y-107700000D03*
X151250000Y-108500000D03*
X151250000Y-109300000D03*
D22*
X149800000Y-110750000D03*
X149000000Y-110750000D03*
X148200000Y-110750000D03*
X147400000Y-110750000D03*
X146600000Y-110750000D03*
X145800000Y-110750000D03*
X145000000Y-110750000D03*
X144200000Y-110750000D03*
D21*
X142750000Y-109300000D03*
X142750000Y-108500000D03*
X142750000Y-107700000D03*
X142750000Y-106900000D03*
X142750000Y-106100000D03*
X142750000Y-105300000D03*
X142750000Y-104500000D03*
X142750000Y-103700000D03*
D22*
X144200000Y-102250000D03*
X145000000Y-102250000D03*
X145800000Y-102250000D03*
X146600000Y-102250000D03*
X147400000Y-102250000D03*
X148200000Y-102250000D03*
X149000000Y-102250000D03*
X149800000Y-102250000D03*
D23*
X138300000Y-68905000D03*
X138300000Y-67635000D03*
X138300000Y-66365000D03*
X138300000Y-65095000D03*
X145700000Y-65095000D03*
X145700000Y-66365000D03*
X145700000Y-67635000D03*
X145700000Y-68905000D03*
X121300000Y-68905000D03*
X121300000Y-67635000D03*
X121300000Y-66365000D03*
X121300000Y-65095000D03*
X128700000Y-65095000D03*
X128700000Y-66365000D03*
X128700000Y-67635000D03*
X128700000Y-68905000D03*
X121300000Y-78905000D03*
X121300000Y-77635000D03*
X121300000Y-76365000D03*
X121300000Y-75095000D03*
X128700000Y-75095000D03*
X128700000Y-76365000D03*
X128700000Y-77635000D03*
X128700000Y-78905000D03*
D24*
X150125000Y-117225000D03*
X146125000Y-117225000D03*
X146125000Y-114825000D03*
X150125000Y-114825000D03*
D11*
X142920000Y-53820000D03*
D12*
X142920000Y-56360000D03*
X145460000Y-53820000D03*
X145460000Y-56360000D03*
X148000000Y-53820000D03*
X148000000Y-56360000D03*
X150540000Y-53820000D03*
X150540000Y-56360000D03*
X153080000Y-53820000D03*
X153080000Y-56360000D03*
D11*
X186060000Y-126000000D03*
D12*
X188600000Y-126000000D03*
X186060000Y-123460000D03*
X188600000Y-123460000D03*
X186060000Y-120920000D03*
X188600000Y-120920000D03*
D11*
X186100000Y-113940000D03*
D12*
X188640000Y-113940000D03*
X186100000Y-111400000D03*
X188640000Y-111400000D03*
X186100000Y-108860000D03*
X188640000Y-108860000D03*
M02*
